<svg width="144" height="144" viewBox="0 0 144 144" fill="none" xmlns="http://www.w3.org/2000/svg">
<g clip-path="url(#clip0)">
<path d="M20.8571 0V6.8571H14V27.4284H20.8571V54.8568H14V109.714H20.8571V123.428H14V130.285H48.2855V137.142H55.1426V143.999H89.4282V137.142H96.2853V130.285H130.571V123.428H123.714V109.714H130.571V54.8568H123.714V27.4284H130.571V6.8571H123.714V0H96.2853V6.8571H48.2855V0H20.8571Z" fill="#F19837"/>
<path d="M14 6.8571H20.8571V0H48.2855V6.8571H96.2853V0H123.714V6.8571H130.571V27.4284H123.714V54.8568H130.571V109.714H123.714V123.428H130.571V130.285H123.714V123.428H109.999V130.285H103.142V123.428H109.999V116.571H116.857V109.714H123.714V54.8568H116.857V27.4284H123.714V6.8571H96.2853V13.7142H48.2855V6.8571H20.8571V27.4284H27.7142V54.8568H20.8571V109.714H27.7142V116.571H34.5713V123.428H41.4284V130.285H34.5713V123.428H20.8571V130.285H14V123.428H20.8571V109.714H14V54.8568H20.8571V27.4284H14V6.8571Z" fill="#613819"/>
<path d="M103.142 54.8582H41.4286V61.7153H34.5715V68.5724H27.7144V102.858H34.5715V109.715H41.4286V116.572H103.142V109.715H110V102.858H116.857V68.5724H110V61.7153H103.142V54.8582Z" fill="white"/>
<path d="M41.4268 6.85718H20.8555V27.4285H27.7126V20.5714H34.5697V13.7143H41.4268V6.85718Z" fill="#FFB4C5"/>
<path d="M103.145 6.85718H123.716V27.4285H116.859V20.5714H110.002V13.7143H103.145V6.85718Z" fill="#FFB4C5"/>
<rect x="41.4253" y="6.85718" width="6.85711" height="6.85711" fill="#C7731D"/>
<rect x="27.7144" y="27.4255" width="6.85711" height="27.4284" fill="#C7731D"/>
<rect x="110.004" y="27.4255" width="6.85711" height="27.4284" fill="#C7731D"/>
<rect x="96.2905" y="6.85718" width="6.85711" height="6.85711" fill="#C7731D"/>
<path d="M61.9956 20.5697V13.7126H82.5669V20.5697H75.7098V34.284H68.8527V20.5697H61.9956Z" fill="#C7731D"/>
<path d="M61.9966 27.4255H41.4253V34.2826H55.1395V47.9968H61.9966V27.4255Z" fill="#C7731D"/>
<path d="M103.136 27.4255H82.5645V34.2826H96.2787V47.9968H103.136V27.4255Z" fill="#C7731D"/>
<path d="M48.2824 34.2822H41.4253V47.9964H55.1395V41.1393H48.2824V34.2822Z" fill="#070200"/>
<path d="M89.4216 34.2822H82.5645V47.9964H96.2787V41.1393H89.4216V34.2822Z" fill="#070200"/>
<rect x="48.2822" y="34.2822" width="6.85711" height="6.85711" fill="white"/>
<rect x="89.4336" y="34.2822" width="6.85711" height="6.85711" fill="white"/>
<path d="M61.9963 54.8582H55.1392V68.5724H68.8534V61.7153H61.9963V54.8582Z" fill="#613819"/>
<path d="M82.5661 61.7153H75.709V68.5724H89.4232V54.8582H82.5661V61.7153Z" fill="#613819"/>
<rect x="61.9956" y="54.8582" width="6.85711" height="6.85711" fill="#FFB4C5"/>
<rect x="75.709" y="54.8582" width="6.85711" height="6.85711" fill="#FFB4C5"/>
<rect x="68.8511" y="54.8582" width="6.85711" height="6.85711" fill="#933B1C"/>
<path d="M89.4281 144H55.1426V137.143H48.2855V130.286H41.4284V123.429H34.5713V89.1431H41.4284V82.286H48.2855V75.4289H55.1426V68.5718H89.4281V75.4289H96.2852V82.286H103.142V89.1431H109.999V123.429H103.142V130.286H96.2852V137.143H89.4281V144Z" fill="#FFDC00"/>
<rect x="55.1401" y="68.5715" width="34.2855" height="6.85711" fill="#F0BC00"/>
<rect x="55.1401" y="137.142" width="34.2855" height="6.85711" fill="#F0BC00"/>
<rect x="34.5703" y="89.1404" width="6.85711" height="34.2855" fill="#F0BC00"/>
<rect x="103.147" y="89.1404" width="6.85711" height="34.2855" fill="#F0BC00"/>
<rect x="41.4272" y="82.2842" width="6.85711" height="6.85711" fill="#F0BC00"/>
<rect x="48.2832" y="75.4277" width="6.85711" height="6.85711" fill="#F0BC00"/>
<rect x="89.4351" y="75.4277" width="6.85711" height="6.85711" fill="#F0BC00"/>
<rect x="96.291" y="82.2842" width="6.85711" height="6.85711" fill="#F0BC00"/>
<rect x="96.291" y="123.429" width="6.85711" height="6.85711" fill="#F0BC00"/>
<rect x="89.4351" y="130.286" width="6.85711" height="6.85711" fill="#F0BC00"/>
<rect x="48.2832" y="130.286" width="6.85711" height="6.85711" fill="#F0BC00"/>
<rect x="41.4272" y="123.429" width="6.85711" height="6.85711" fill="#F0BC00"/>
<path fill-rule="evenodd" clip-rule="evenodd" d="M68.8527 82.2842H75.7098V89.1413H82.5669V95.9984H68.8527V102.855H82.5669V109.713H68.8527V116.57H82.5669V123.427H75.7098V130.284H68.8527V123.427H61.9956V89.1413H68.8527V82.2842ZM82.5669 116.57V109.713H89.424V116.57H82.5669ZM82.5669 102.855H89.424V95.9984H82.5669V102.855Z" fill="#B98500"/>
<rect x="61.9956" y="82.2842" width="6.85711" height="6.85711" fill="#F0BC00"/>
<rect x="61.9956" y="123.429" width="6.85711" height="6.85711" fill="#F0BC00"/>
<rect x="75.7095" y="109.717" width="6.85711" height="6.85711" fill="#F0BC00"/>
<rect x="75.7095" y="95.9971" width="6.85711" height="6.85711" fill="#F0BC00"/>
<rect x="55.1401" y="89.1404" width="6.85711" height="34.2855" fill="#F0BC00"/>
<path d="M27.7126 102.858V54.8582H20.8555V109.715H27.7126V116.572H34.5697V102.858H27.7126Z" fill="#C7731D"/>
<path d="M116.859 102.858V54.8582H123.716V109.715H116.859V116.572H110.002V102.858H116.859Z" fill="#C7731D"/>
<path d="M41.4269 68.5718H48.284V75.4289H55.1411V89.1431H34.5698V82.286H48.284V75.4289H41.4269V68.5718Z" fill="#613819"/>
<path d="M103.147 68.5718H96.2897V75.4289H89.4326V89.1431H110.004V82.286H96.2897V75.4289H103.147V68.5718Z" fill="#613819"/>
<rect x="34.5698" y="75.4277" width="13.7142" height="6.85711" fill="#FFB4C5"/>
<rect x="96.2905" y="75.4277" width="13.7142" height="6.85711" fill="#FFB4C5"/>
<rect x="20.8555" y="123.43" width="13.7142" height="6.85711" fill="#FFB4C5"/>
<rect x="110.004" y="123.43" width="13.7142" height="6.85711" fill="#FFB4C5"/>
</g>
<defs>
<clipPath id="clip0">
<rect width="144" height="144" fill="white"/>
</clipPath>
</defs>
</svg>
