<svg width="15" height="15" viewBox="0 0 15 15" fill="none" xmlns="http://www.w3.org/2000/svg">
<path d="M12.0652 2.2831V0.000488281H11.413H11.087H3.91304H2.93479V2.2831H0V3.26135V6.19613H0.978252V7.17439H1.9565V8.15264H2.93476V9.13089H3.91301V10.1091H4.89126V11.0874H5.86951V12.0656H3.91298V13.0439H2.93473V14.0221V15.0005H3.91298H11.0869H12.0652V13.044H11.0869V12.0657H9.13037V11.0875H10.1086V10.1092H11.0869V9.13095H11.413H12.0651V8.1527H13.0434V7.17441H14.0216V6.19616H15V3.26135V2.2831H12.0652ZM2.93479 6.19613H1.95653V5.21788H0.978252V3.58745H1.9565H2.93476V6.19613H2.93479ZM14.0217 5.21788H13.0435V6.19613H12.0652V3.58745H13.0435H14.0217V5.21788Z" fill="#7E7DA0"/>
</svg>
