<?xml version="1.0" encoding="utf-8"?>
<svg width="41" height="41" viewBox="0 0 41 41" fill="none" xmlns="http://www.w3.org/2000/svg" xmlns:bx="https://boxy-svg.com">
  <g style="">
    <title>Tasarım</title>
    <path d="M 13.12 0.04 L 27.88 -0.04 L 27.88 1.6 L 31.16 1.582 L 31.16 3.222 L 32.8 3.213 L 32.8 4.853 L 34.44 4.844 L 34.44 6.484 L 36.08 6.475 L 36.08 8.115 L 37.72 8.106 L 37.72 9.746 L 39.36 9.737 L 39.36 13.017 L 41 13.008 L 41 27.768 L 39.36 27.777 L 39.36 31.057 L 37.72 31.066 L 37.72 32.706 L 36.08 32.715 L 36.08 34.355 L 34.44 34.364 L 34.44 36.004 L 32.8 36.013 L 32.8 37.653 L 31.16 37.662 L 31.16 39.302 L 27.88 39.32 L 27.88 40.96 L 13.12 41.04 L 13.12 39.4 L 9.84 39.418 L 9.84 37.778 L 8.2 37.787 L 8.2 36.147 L 6.56 36.156 L 6.56 34.516 L 4.92 34.525 L 4.92 32.885 L 3.28 32.894 L 3.28 31.254 L 1.64 31.263 L 1.64 27.983 L 0 27.992 L 0 13.232 L 1.64 13.223 L 1.64 9.943 L 3.28 9.934 L 3.28 8.294 L 4.92 8.285 L 4.92 6.645 L 6.56 6.636 L 6.56 4.996 L 8.2 4.987 L 8.2 3.347 L 9.84 3.338 L 9.84 1.698 L 13.12 1.68 L 13.12 0.04 Z" style="fill: rgb(46, 45, 45);"/>
    <path d="M 3.28 13.215 L 1.64 13.224 L 1.64 27.984 L 3.28 27.975 L 3.28 31.255 L 4.92 31.246 L 4.92 32.886 L 6.56 32.877 L 6.56 34.517 L 8.2 34.508 L 8.2 36.148 L 9.84 36.139 L 9.84 37.779 L 13.12 37.761 L 13.12 39.401 L 27.88 39.32 L 27.88 37.68 L 31.16 37.662 L 31.16 36.022 L 32.8 36.013 L 32.8 34.373 L 34.44 34.364 L 34.44 32.724 L 36.08 32.715 L 36.08 31.075 L 37.72 31.066 L 37.72 27.786 L 39.36 27.777 L 39.36 13.017 L 37.72 13.026 L 37.72 9.746 L 36.08 9.755 L 36.08 8.115 L 34.44 8.124 L 34.44 6.484 L 32.8 6.493 L 32.8 4.853 L 31.16 4.862 L 31.16 3.222 L 27.88 3.24 L 27.88 1.6 L 13.12 1.681 L 13.12 3.321 L 9.84 3.339 L 9.84 4.979 L 8.2 4.988 L 8.2 6.628 L 6.56 6.637 L 6.56 8.277 L 4.92 8.286 L 4.92 9.926 L 3.28 9.935 L 3.28 13.215 Z" fill="#6D87DE" style=""/>
    <path d="M 3.28 13.215 L 1.64 13.224 L 1.64 27.984 L 3.28 27.975 L 3.28 31.255 L 4.92 31.246 L 4.92 32.886 L 6.56 32.877 L 6.56 34.517 L 8.2 34.508 L 8.2 36.148 L 9.84 36.139 L 9.84 37.779 L 13.12 37.761 L 13.12 39.401 L 27.88 39.32 L 27.88 37.68 L 31.16 37.662 L 31.16 36.022 L 32.8 36.013 L 32.8 34.373 L 34.44 34.364 L 34.44 32.724 L 36.08 32.715 L 36.08 31.075 L 37.72 31.066 L 37.72 27.786 L 39.36 27.777 L 39.36 13.017 L 37.72 13.026 L 37.72 9.746 L 36.08 9.755 L 36.08 8.115 L 34.44 8.124 L 34.44 6.484 L 32.8 6.493 L 32.8 4.853 L 31.16 4.862 L 31.16 3.222 L 27.88 3.24 L 27.88 1.6 L 13.12 1.681 L 13.12 3.321 L 9.84 3.339 L 9.84 4.979 L 8.2 4.988 L 8.2 6.628 L 6.56 6.637 L 6.56 8.277 L 4.92 8.286 L 4.92 9.926 L 3.28 9.935 L 3.28 13.215 Z" style="fill: rgb(220, 196, 196);"/>
    <path d="M 3.28 13.214 L 3.28 31.254 L 4.92 31.245 L 4.92 32.885 L 6.56 32.876 L 6.56 34.516 L 8.2 34.507 L 8.2 36.147 L 9.84 36.138 L 9.84 37.778 L 13.12 37.76 L 13.12 39.4 L 27.88 39.319 L 27.88 37.679 L 31.16 37.661 L 31.16 36.021 L 32.8 36.012 L 32.8 34.372 L 34.44 34.363 L 34.44 32.723 L 36.08 32.714 L 36.08 31.074 L 37.72 31.065 L 37.72 27.785 L 39.36 27.776 L 39.36 13.016 L 37.72 13.025 L 37.72 9.745 L 36.08 9.754 L 36.08 8.114 L 32.8 8.132 L 32.8 6.492 L 31.16 6.501 L 31.16 4.861 L 27.88 4.879 L 27.88 3.239 L 13.12 3.32 L 13.12 4.96 L 9.84 4.978 L 9.84 6.618 L 8.2 6.627 L 8.2 8.267 L 6.56 8.276 L 6.56 9.916 L 4.92 9.925 L 4.92 13.205 L 3.28 13.214 Z" style="fill: rgb(235, 235, 235);"/>
    <path d="M 37.72 27.785 L 36.08 27.794 L 36.08 31.074 L 34.44 31.083 L 34.44 32.723 L 32.8 32.732 L 32.8 34.372 L 31.16 34.381 L 31.16 36.021 L 27.88 36.039 L 27.88 37.679 L 13.12 37.76 L 13.12 36.12 L 9.84 36.138 L 9.84 34.498 L 8.2 34.507 L 8.2 32.867 L 6.56 32.876 L 6.56 31.236 L 3.28 31.254 L 3.28 13.214 L 4.92 13.205 L 4.92 9.925 L 6.56 9.916 L 6.56 8.276 L 8.2 8.267 L 8.2 6.627 L 9.84 6.618 L 9.84 4.978 L 13.12 4.96 L 13.12 3.32 L 27.88 3.239 L 27.88 4.879 L 31.16 4.861 L 31.16 6.501 L 32.8 6.492 L 32.8 8.132 L 36.08 8.114 L 36.08 9.754 L 37.72 9.745 L 37.72 27.785 Z" style="fill: rgb(71, 63, 63);"/>
    <path d="M 33.612 13.273 C 31.974 10.898 29.392 9.113 26.713 8.007 C 23.998 6.891 20.915 6.445 18.003 7.047 C 12.978 8.088 8.273 11.907 7.015 16.835 C 6.822 17.174 6.806 17.632 6.732 18.003 C 6.678 18.265 6.644 18.531 6.616 18.797 C 6.61 18.821 6.611 18.851 6.606 18.875 C 6.6 18.894 6.594 18.906 6.595 18.924 C 6.554 19.179 6.52 19.434 6.49 19.688 C 6.49 19.694 6.484 19.694 6.484 19.7 C 6.456 19.774 6.452 19.84 6.467 19.893 C 6.421 20.382 6.394 20.871 6.373 21.361 C 6.346 22.049 6.363 22.741 6.423 23.427 C 6.548 24.765 6.857 26.092 7.376 27.338 C 8.405 29.819 10.339 31.839 12.886 32.877 C 14.333 33.463 15.933 33.771 17.491 33.912 C 19.074 34.052 20.679 33.981 22.247 33.7 C 25.378 33.138 28.274 31.687 30.527 29.489 C 32.707 27.365 34.387 24.67 35.1 21.738 C 35.826 18.819 35.334 15.77 33.612 13.273 Z M 28.534 30.411 C 25.974 32.302 22.808 33.263 19.626 33.375 C 18.013 33.429 16.399 33.241 14.839 32.859 C 13.411 32.508 12.075 31.949 10.92 31.057 C 9.238 29.765 8.137 27.907 7.533 25.923 C 7.213 24.88 7.054 23.795 6.999 22.706 C 6.968 22.153 6.974 21.598 7.012 21.043 C 7.028 20.777 7.044 20.511 7.066 20.245 C 7.066 20.232 7.065 20.215 7.065 20.203 C 7.078 20.075 7.093 19.948 7.101 19.821 C 7.254 19.375 7.218 18.89 7.29 18.428 C 7.331 18.18 7.384 17.931 7.432 17.683 C 7.443 17.633 7.448 17.578 7.451 17.518 C 7.474 17.457 7.503 17.39 7.532 17.329 C 7.554 17.244 7.57 17.153 7.592 17.068 C 7.62 17.012 7.637 16.957 7.629 16.909 C 8.87 12.181 13.481 8.527 18.331 7.595 C 21.275 7.028 24.35 7.601 27.037 8.809 C 29.712 10.006 32.264 11.972 33.673 14.529 C 36.701 20.052 33.274 26.91 28.534 30.411 Z" style="opacity: 0.9; stroke-width: 0.061;" bx:origin="0.463 0.506"/>
  </g>
  <g transform="matrix(1.25655, 0, 0, 1.150023, -3.785469, -2.433419)">
    <path fill="#c7ede6" d="M 30.377 21.439 C 30.466 21.249 30.545 21.048 30.614 20.838 C 31.399 18.437 30.212 15.559 27.713 14.865 C 27.443 11.346 25.059 8.932 22.366 8.52 C 19.284 8.049 16.461 10.079 15.522 13.307 C 14.39 12.891 13.286 12.941 12.246 13.572 C 11.775 13.798 11.343 14.132 10.956 14.571 C 10.388 15.216 10.018 16.03 9.868 16.888 C 9.645 16.924 9.426 16.961 9.219 17.037 C 8.015 17.485 7.255 18.407 7.047 19.796 C 6.917 20.66 7.179 21.523 7.325 21.871 C 7.902 23.248 9.239 24.029 10.598 23.822 C 10.665 23.812 10.764 23.844 10.822 23.894 C 10.894 26.095 11.924 28.042 13.47 29.154 C 15.949 30.938 19.14 30.388 21.153 27.942 C 22.016 28.857 23.042 29.301 24.248 29.14 C 25.447 28.979 26.378 28.293 27.057 27.177 C 27.371 27.265 27.668 27.391 27.976 27.426 C 29.18 27.562 30.159 27.066 30.876 25.942 C 31.151 25.512 31.411 24.955 31.411 23.978 C 31.411 22.971 31.025 22.054 30.377 21.439 Z" style="stroke-width: 0.304;"/>
    <path fill="#fff" d="M 9.415 18.977 L 6.425 18.977 C 6.343 18.977 6.276 18.908 6.276 18.823 C 6.276 18.737 6.343 18.668 6.425 18.668 L 9.415 18.668 C 9.497 18.668 9.564 18.737 9.564 18.823 C 9.564 18.908 9.497 18.977 9.415 18.977 Z M 10.274 18.977 L 9.843 18.977 C 9.76 18.977 9.694 18.908 9.694 18.823 C 9.694 18.737 9.76 18.668 9.843 18.668 L 10.274 18.668 C 10.356 18.668 10.423 18.737 10.423 18.823 C 10.423 18.908 10.356 18.977 10.274 18.977 Z M 11.482 18.977 L 10.723 18.977 C 10.641 18.977 10.574 18.908 10.574 18.823 C 10.574 18.737 10.641 18.668 10.723 18.668 L 11.482 18.668 C 11.564 18.668 11.631 18.737 11.631 18.823 C 11.631 18.908 11.564 18.977 11.482 18.977 Z M 11.482 19.554 L 8.616 19.554 C 8.534 19.554 8.467 19.484 8.467 19.399 C 8.467 19.314 8.534 19.245 8.616 19.245 L 11.482 19.245 C 11.564 19.245 11.631 19.314 11.631 19.399 C 11.631 19.484 11.564 19.554 11.482 19.554 Z M 8.1 19.554 L 7.927 19.554 C 7.845 19.554 7.778 19.484 7.778 19.399 C 7.778 19.314 7.845 19.245 7.927 19.245 L 8.1 19.245 C 8.182 19.245 8.249 19.314 8.249 19.399 C 8.249 19.484 8.182 19.554 8.1 19.554 Z M 7.391 19.554 L 6.957 19.554 C 6.875 19.554 6.808 19.484 6.808 19.399 C 6.808 19.314 6.875 19.245 6.957 19.245 L 7.391 19.245 C 7.474 19.245 7.54 19.314 7.54 19.399 C 7.54 19.484 7.474 19.554 7.391 19.554 Z M 10.114 18.401 L 8.616 18.401 C 8.534 18.401 8.467 18.331 8.467 18.246 C 8.467 18.161 8.534 18.092 8.616 18.092 L 10.114 18.092 C 10.196 18.092 10.263 18.161 10.263 18.246 C 10.263 18.331 10.196 18.401 10.114 18.401 Z M 10.114 17.824 L 9.739 17.824 C 9.657 17.824 9.59 17.755 9.59 17.67 C 9.59 17.584 9.657 17.515 9.739 17.515 L 10.114 17.515 C 10.196 17.515 10.263 17.584 10.263 17.67 C 10.263 17.755 10.196 17.824 10.114 17.824 Z M 9.14 20.13 L 8.616 20.13 C 8.534 20.13 8.467 20.061 8.467 19.976 C 8.467 19.89 8.534 19.821 8.616 19.821 L 9.14 19.821 C 9.222 19.821 9.289 19.89 9.289 19.976 C 9.289 20.061 9.222 20.13 9.14 20.13 Z M 26.112 12.077 L 23.123 12.077 C 23.04 12.077 22.974 12.008 22.974 11.923 C 22.974 11.837 23.04 11.768 23.123 11.768 L 26.112 11.768 C 26.194 11.768 26.261 11.837 26.261 11.923 C 26.261 12.008 26.195 12.077 26.112 12.077 Z M 26.971 12.077 L 26.54 12.077 C 26.458 12.077 26.391 12.008 26.391 11.923 C 26.391 11.837 26.458 11.768 26.54 11.768 L 26.971 11.768 C 27.053 11.768 27.12 11.837 27.12 11.923 C 27.12 12.008 27.053 12.077 26.971 12.077 Z M 28.179 12.077 L 27.42 12.077 C 27.338 12.077 27.271 12.008 27.271 11.923 C 27.271 11.837 27.338 11.768 27.42 11.768 L 28.179 11.768 C 28.261 11.768 28.328 11.837 28.328 11.923 C 28.328 12.008 28.262 12.077 28.179 12.077 Z M 28.179 12.654 L 25.313 12.654 C 25.231 12.654 25.164 12.585 25.164 12.499 C 25.164 12.414 25.231 12.345 25.313 12.345 L 28.179 12.345 C 28.261 12.345 28.328 12.414 28.328 12.499 C 28.328 12.585 28.262 12.654 28.179 12.654 Z M 24.797 12.654 L 24.624 12.654 C 24.542 12.654 24.475 12.585 24.475 12.499 C 24.475 12.414 24.542 12.345 24.624 12.345 L 24.797 12.345 C 24.879 12.345 24.946 12.414 24.946 12.499 C 24.946 12.585 24.88 12.654 24.797 12.654 Z M 24.089 12.654 L 23.655 12.654 C 23.572 12.654 23.506 12.585 23.506 12.499 C 23.506 12.414 23.572 12.345 23.655 12.345 L 24.089 12.345 C 24.171 12.345 24.238 12.414 24.238 12.499 C 24.238 12.585 24.171 12.654 24.089 12.654 Z M 26.811 11.501 L 25.313 11.501 C 25.231 11.501 25.164 11.432 25.164 11.346 C 25.164 11.261 25.231 11.192 25.313 11.192 L 26.811 11.192 C 26.894 11.192 26.96 11.261 26.96 11.346 C 26.96 11.432 26.894 11.501 26.811 11.501 Z M 26.811 10.924 L 26.437 10.924 C 26.355 10.924 26.288 10.855 26.288 10.77 C 26.288 10.684 26.355 10.615 26.437 10.615 L 26.811 10.615 C 26.894 10.615 26.96 10.684 26.96 10.77 C 26.96 10.855 26.894 10.924 26.811 10.924 Z M 25.837 13.23 L 25.313 13.23 C 25.231 13.23 25.164 13.161 25.164 13.076 C 25.164 12.99 25.231 12.921 25.313 12.921 L 25.837 12.921 C 25.919 12.921 25.986 12.99 25.986 13.076 C 25.986 13.161 25.92 13.23 25.837 13.23 Z" style="stroke-width: 0.304;"/>
    <path fill="#fdfcef" d="M 26.282 19.235 C 26.282 19.235 29.446 19.235 29.465 19.235 C 30.196 19.235 30.788 18.62 30.788 17.862 C 30.788 17.201 30.337 16.65 29.737 16.52 C 29.744 16.462 29.749 16.403 29.749 16.343 C 29.749 15.559 29.135 14.922 28.379 14.922 C 27.932 14.922 27.536 15.145 27.286 15.488 C 27.222 14.615 26.47 13.94 25.59 14.052 C 24.946 14.134 24.413 14.65 24.295 15.311 C 24.257 15.523 24.261 15.729 24.299 15.922 C 24.126 15.729 23.881 15.608 23.607 15.608 C 23.106 15.608 22.697 16.012 22.665 16.523 C 22.438 16.471 22.19 16.475 21.93 16.576 C 21.432 16.77 21.077 17.256 21.057 17.807 C 21.027 18.59 21.63 19.234 22.378 19.234 C 22.435 19.234 22.635 19.234 22.681 19.234 L 25.428 19.234" style="stroke-width: 0.304;"/>
    <path fill="#472b29" d="M 29.465 19.389 L 26.282 19.389 C 26.2 19.389 26.133 19.32 26.133 19.235 C 26.133 19.149 26.2 19.08 26.282 19.08 L 29.465 19.08 C 30.113 19.08 30.639 18.534 30.639 17.862 C 30.639 17.289 30.247 16.788 29.707 16.671 C 29.631 16.654 29.58 16.581 29.589 16.501 C 29.596 16.449 29.6 16.397 29.6 16.343 C 29.6 15.645 29.052 15.076 28.378 15.076 C 27.993 15.076 27.638 15.26 27.405 15.581 C 27.367 15.632 27.303 15.654 27.244 15.636 C 27.184 15.618 27.142 15.564 27.137 15.5 C 27.109 15.117 26.928 14.757 26.641 14.514 C 26.351 14.267 25.984 14.158 25.607 14.205 C 25.027 14.279 24.547 14.745 24.441 15.339 C 24.407 15.525 24.408 15.71 24.444 15.891 C 24.457 15.959 24.425 16.028 24.366 16.06 C 24.307 16.091 24.234 16.078 24.189 16.028 C 24.036 15.857 23.829 15.763 23.606 15.763 C 23.189 15.763 22.84 16.101 22.813 16.534 C 22.81 16.579 22.788 16.62 22.753 16.647 C 22.719 16.674 22.674 16.684 22.632 16.675 C 22.407 16.623 22.194 16.638 21.981 16.721 C 21.535 16.895 21.223 17.334 21.205 17.814 C 21.192 18.148 21.308 18.466 21.531 18.707 C 21.755 18.948 22.055 19.08 22.378 19.08 L 25.427 19.08 C 25.51 19.08 25.576 19.15 25.576 19.235 C 25.576 19.32 25.51 19.39 25.427 19.39 L 22.378 19.39 C 21.974 19.39 21.597 19.223 21.317 18.921 C 21.037 18.619 20.891 18.221 20.907 17.802 C 20.93 17.199 21.32 16.649 21.877 16.432 C 22.092 16.348 22.313 16.319 22.539 16.345 C 22.647 15.834 23.088 15.454 23.606 15.454 C 23.786 15.454 23.962 15.501 24.119 15.587 C 24.12 15.486 24.13 15.385 24.148 15.283 C 24.278 14.558 24.863 13.989 25.571 13.899 C 26.03 13.84 26.477 13.974 26.831 14.275 C 27.098 14.503 27.29 14.813 27.381 15.156 C 27.655 14.907 28.005 14.768 28.378 14.768 C 29.216 14.768 29.898 15.475 29.898 16.344 C 29.898 16.364 29.898 16.383 29.897 16.403 C 30.507 16.597 30.937 17.19 30.937 17.863 C 30.937 18.704 30.277 19.389 29.465 19.389 Z" style="stroke-width: 0.304;"/>
    <path fill="#fdfcef" d="M 25.515 16.212 C 25.026 16.178 24.605 16.529 24.574 16.995 C 24.571 17.053 24.573 17.109 24.581 17.165 C 24.487 17.054 24.347 16.979 24.187 16.968 C 23.893 16.948 23.64 17.149 23.603 17.423 C 23.55 17.408 23.494 17.398 23.436 17.394 C 23.008 17.364 22.639 17.671 22.613 18.079" style="stroke-width: 0.304;"/>
    <path fill="#472b29" d="M 22.613 18.156 C 22.611 18.156 22.61 18.156 22.608 18.156 C 22.567 18.153 22.536 18.117 22.539 18.074 C 22.568 17.624 22.972 17.284 23.441 17.317 C 23.476 17.319 23.511 17.324 23.546 17.331 C 23.624 17.059 23.891 16.872 24.192 16.892 C 24.304 16.899 24.409 16.935 24.5 16.994 C 24.5 16.992 24.5 16.991 24.5 16.99 C 24.533 16.483 24.993 16.102 25.52 16.135 C 25.562 16.138 25.593 16.175 25.59 16.217 C 25.587 16.26 25.551 16.292 25.511 16.289 C 25.059 16.258 24.676 16.578 24.649 17 C 24.646 17.051 24.648 17.103 24.655 17.154 C 24.66 17.187 24.643 17.221 24.613 17.235 C 24.584 17.25 24.548 17.242 24.526 17.216 C 24.441 17.117 24.316 17.055 24.182 17.046 C 23.93 17.028 23.708 17.199 23.677 17.434 C 23.674 17.456 23.662 17.475 23.644 17.488 C 23.626 17.5 23.604 17.504 23.584 17.498 C 23.532 17.484 23.481 17.475 23.432 17.471 C 23.043 17.445 22.711 17.72 22.687 18.084 C 22.685 18.125 22.652 18.156 22.613 18.156 Z" style="stroke-width: 0.304;"/>
    <path fill="#fdfcef" d="M 30.001 16.68 C 29.541 16.456 29.009 16.615 28.813 17.036 C 28.789 17.088 28.771 17.142 28.759 17.197" style="stroke-width: 0.304;"/>
    <path fill="#472b29" d="M 28.759 17.274 C 28.753 17.274 28.748 17.274 28.742 17.272 C 28.702 17.263 28.677 17.221 28.686 17.18 C 28.699 17.118 28.72 17.058 28.746 17.003 C 28.959 16.544 29.536 16.368 30.033 16.611 C 30.07 16.629 30.086 16.675 30.068 16.713 C 30.051 16.752 30.006 16.768 29.969 16.751 C 29.547 16.544 29.058 16.688 28.88 17.07 C 28.859 17.116 28.842 17.164 28.831 17.215 C 28.823 17.25 28.793 17.274 28.759 17.274 Z" style="stroke-width: 0.304;"/>
    <path fill="#babce2" d="M 23.39 25.858 L 15.724 25.858 C 14.602 25.858 13.683 24.906 13.683 23.742 L 13.683 15.791 C 13.683 14.627 14.602 13.674 15.724 13.674 L 23.39 13.674 C 24.512 13.674 25.43 14.627 25.43 15.791 L 25.43 23.742 C 25.431 24.906 24.512 25.858 23.39 25.858 Z" style="stroke-width: 0.304;"/>
    <path fill="#472b29" d="M 23.39 26.075 L 15.724 26.075 C 14.483 26.075 13.474 25.028 13.474 23.742 L 13.474 15.791 C 13.474 14.504 14.483 13.458 15.724 13.458 L 23.39 13.458 C 24.63 13.458 25.639 14.505 25.639 15.791 L 25.639 23.742 C 25.639 25.028 24.63 26.075 23.39 26.075 Z M 15.724 13.891 C 14.714 13.891 13.892 14.743 13.892 15.791 L 13.892 23.742 C 13.892 24.79 14.714 25.642 15.724 25.642 L 23.39 25.642 C 24.4 25.642 25.222 24.79 25.222 23.742 L 25.222 15.791 C 25.222 14.743 24.4 13.891 23.39 13.891 L 15.724 13.891 Z" style="stroke-width: 0.304;"/>
    <path fill="#fdfcee" d="M 22.938 24.988 L 16.176 24.988 C 15.266 24.988 14.522 24.216 14.522 23.273 L 14.522 16.26 C 14.522 15.316 15.266 14.544 16.176 14.544 L 22.938 14.544 C 23.847 14.544 24.591 15.316 24.591 16.26 L 24.591 23.273 C 24.591 24.216 23.847 24.988 22.938 24.988 Z" style="stroke-width: 0.304;"/>
    <path fill="#472b29" d="M 23.061 25.096 L 16.052 25.096 C 15.151 25.096 14.418 24.336 14.418 23.401 L 14.418 16.132 C 14.418 15.197 15.151 14.437 16.052 14.437 L 22.727 14.437 C 22.784 14.437 22.831 14.485 22.831 14.545 C 22.831 14.604 22.784 14.653 22.727 14.653 L 16.052 14.653 C 15.266 14.653 14.627 15.316 14.627 16.132 L 14.627 23.401 C 14.627 24.217 15.266 24.88 16.052 24.88 L 23.061 24.88 C 23.848 24.88 24.487 24.217 24.487 23.401 L 24.487 19.38 C 24.487 19.32 24.534 19.271 24.591 19.271 C 24.649 19.271 24.696 19.32 24.696 19.38 L 24.696 23.401 C 24.696 24.336 23.963 25.096 23.061 25.096 Z" style="stroke-width: 0.304;"/>
    <path fill="#472b29" d="M 24.591 18.908 C 24.534 18.908 24.487 18.859 24.487 18.799 L 24.487 18.026 C 24.487 17.966 24.534 17.918 24.591 17.918 C 24.649 17.918 24.696 17.966 24.696 18.026 L 24.696 18.799 C 24.696 18.859 24.649 18.908 24.591 18.908 Z M 24.591 17.747 C 24.534 17.747 24.487 17.699 24.487 17.639 L 24.487 17.252 C 24.487 17.193 24.534 17.144 24.591 17.144 C 24.649 17.144 24.696 17.193 24.696 17.252 L 24.696 17.639 C 24.696 17.699 24.649 17.747 24.591 17.747 Z" style="stroke-width: 0.304;"/>
    <path fill="#8a8dce" d="M 22.551 17.618 C 22.471 17.403 22.363 17.22 22.187 17.038 C 22.011 16.856 21.836 16.744 21.628 16.661 C 21.428 16.58 21.196 16.524 20.861 16.509 C 20.524 16.493 20.417 16.488 19.557 16.488 C 18.697 16.488 18.59 16.491 18.253 16.509 C 17.916 16.524 17.686 16.579 17.486 16.661 C 17.278 16.744 17.102 16.856 16.926 17.038 C 16.751 17.22 16.643 17.403 16.563 17.618 C 16.484 17.826 16.431 18.067 16.416 18.414 C 16.401 18.763 16.396 18.875 16.396 19.766 C 16.396 20.658 16.399 20.769 16.416 21.119 C 16.431 21.469 16.484 21.707 16.563 21.914 C 16.643 22.13 16.751 22.312 16.926 22.495 C 17.102 22.677 17.278 22.789 17.486 22.872 C 17.686 22.953 17.918 23.009 18.253 23.024 C 18.59 23.039 18.697 23.045 19.557 23.045 C 20.417 23.045 20.524 23.042 20.861 23.024 C 21.198 23.009 21.428 22.953 21.628 22.872 C 21.836 22.789 22.011 22.677 22.187 22.495 C 22.363 22.312 22.471 22.13 22.551 21.914 C 22.629 21.707 22.683 21.466 22.698 21.119 C 22.712 20.769 22.717 20.658 22.717 19.766 C 22.717 18.875 22.715 18.763 22.698 18.414 C 22.683 18.064 22.629 17.826 22.551 17.618 Z" style="stroke-width: 0.304;"/>
    <path fill="#472b29" d="M 19.557 23.152 C 18.702 23.152 18.59 23.147 18.256 23.133 C 17.931 23.118 17.685 23.069 17.448 22.973 C 17.213 22.878 17.03 22.754 16.853 22.571 C 16.676 22.388 16.557 22.197 16.466 21.953 C 16.373 21.708 16.326 21.452 16.312 21.123 C 16.295 20.772 16.293 20.662 16.293 19.766 C 16.293 18.878 16.298 18.762 16.312 18.416 C 16.326 18.08 16.373 17.824 16.466 17.579 C 16.557 17.335 16.676 17.145 16.853 16.961 C 17.03 16.778 17.213 16.654 17.448 16.56 C 17.685 16.464 17.932 16.415 18.248 16.4 C 18.587 16.382 18.693 16.38 19.557 16.38 C 20.416 16.38 20.529 16.385 20.862 16.4 C 21.183 16.415 21.429 16.464 21.666 16.56 C 21.901 16.654 22.084 16.778 22.261 16.961 C 22.438 17.145 22.557 17.335 22.648 17.579 C 22.741 17.824 22.788 18.08 22.802 18.409 C 22.819 18.76 22.821 18.87 22.821 19.766 C 22.821 20.654 22.816 20.77 22.802 21.116 C 22.788 21.452 22.741 21.708 22.648 21.954 C 22.557 22.197 22.438 22.387 22.261 22.571 C 22.084 22.754 21.901 22.878 21.666 22.973 C 21.429 23.069 21.182 23.118 20.865 23.132 C 20.527 23.15 20.421 23.152 19.557 23.152 Z M 19.557 16.597 C 18.698 16.597 18.593 16.599 18.258 16.617 C 17.965 16.63 17.739 16.675 17.524 16.761 C 17.317 16.845 17.156 16.954 17 17.115 C 16.845 17.276 16.74 17.443 16.66 17.657 C 16.576 17.88 16.533 18.115 16.521 18.418 C 16.506 18.768 16.501 18.883 16.501 19.766 C 16.501 20.657 16.504 20.766 16.521 21.113 C 16.533 21.417 16.576 21.652 16.66 21.875 C 16.74 22.089 16.845 22.256 17 22.417 C 17.156 22.578 17.317 22.687 17.524 22.771 C 17.738 22.858 17.964 22.902 18.257 22.915 C 18.595 22.93 18.706 22.935 19.557 22.935 C 20.416 22.935 20.52 22.933 20.856 22.915 C 21.149 22.902 21.375 22.857 21.59 22.771 C 21.797 22.687 21.958 22.578 22.113 22.417 C 22.268 22.256 22.373 22.089 22.454 21.875 C 22.537 21.652 22.58 21.418 22.593 21.114 C 22.608 20.764 22.613 20.649 22.613 19.766 C 22.613 18.875 22.61 18.766 22.593 18.419 C 22.581 18.114 22.537 17.88 22.454 17.657 C 22.454 17.657 22.454 17.657 22.454 17.657 C 22.373 17.443 22.268 17.275 22.113 17.114 C 21.958 16.953 21.797 16.845 21.59 16.761 C 21.375 16.674 21.149 16.63 20.856 16.616 C 20.523 16.602 20.412 16.597 19.557 16.597 Z" style="stroke-width: 0.304;"/>
    <path fill="#fdfcef" d="M 19.554 18.082 C 18.658 18.082 17.93 18.837 17.93 19.766 C 17.93 20.696 18.658 21.451 19.554 21.451 C 20.451 21.451 21.178 20.696 21.178 19.766 C 21.178 18.837 20.451 18.082 19.554 18.082 Z" style="stroke-width: 0.304;"/>
    <path fill="#472b29" d="M 19.554 21.559 C 18.601 21.559 17.826 20.755 17.826 19.766 C 17.826 18.778 18.602 17.974 19.554 17.974 C 20.507 17.974 21.283 18.778 21.283 19.766 C 21.283 20.755 20.508 21.559 19.554 21.559 Z M 19.554 18.19 C 18.716 18.19 18.035 18.897 18.035 19.766 C 18.035 20.636 18.717 21.343 19.554 21.343 C 20.393 21.343 21.074 20.636 21.074 19.766 C 21.074 18.897 20.393 18.19 19.554 18.19 Z" style="stroke-width: 0.304;"/>
    <path fill="#fdfcef" d="M 21.302 17.509 C 21.01 17.509 20.828 17.836 20.974 18.098 C 21.042 18.219 21.167 18.294 21.302 18.294 C 21.593 18.294 21.775 17.967 21.63 17.705 C 21.562 17.584 21.437 17.509 21.302 17.509 Z" style="stroke-width: 0.304;"/>
    <path fill="#472b29" d="M 21.302 18.403 C 21.036 18.403 20.819 18.178 20.819 17.902 C 20.819 17.625 21.036 17.401 21.302 17.401 C 21.568 17.401 21.785 17.625 21.785 17.902 C 21.785 18.178 21.568 18.403 21.302 18.403 Z M 21.302 17.617 C 21.151 17.617 21.028 17.745 21.028 17.902 C 21.028 18.058 21.151 18.186 21.302 18.186 C 21.453 18.186 21.576 18.058 21.576 17.902 C 21.576 17.745 21.453 17.617 21.302 17.617 Z" style="stroke-width: 0.304;"/>
    <path fill="#fdfcef" d="M 16.495 26.635 C 17.005 26.635 17.447 26.635 17.453 26.635 C 18.024 26.635 18.487 26.165 18.487 25.585 C 18.487 25.08 18.135 24.658 17.666 24.558 C 17.671 24.514 17.675 24.469 17.675 24.424 C 17.675 23.823 17.196 23.336 16.604 23.336 C 16.255 23.336 15.946 23.507 15.75 23.769 C 15.7 23.101 15.112 22.585 14.424 22.671 C 13.921 22.733 13.505 23.128 13.412 23.634 C 13.383 23.796 13.386 23.954 13.415 24.101 C 13.28 23.954 13.088 23.861 12.875 23.861 C 12.483 23.861 12.164 24.171 12.139 24.561 C 11.961 24.521 11.768 24.524 11.564 24.602 C 11.175 24.75 10.898 25.122 10.882 25.543 C 10.859 26.142 11.33 26.635 11.915 26.635 C 11.959 26.635 12.115 26.635 12.151 26.635 L 14.298 26.635 M 14.742 26.635 L 14.84 26.635" style="stroke-width: 0.304;"/>
    <path fill="#472b29" d="M 17.453 26.79 L 16.495 26.79 C 16.413 26.79 16.346 26.721 16.346 26.635 C 16.346 26.55 16.413 26.481 16.495 26.481 L 17.453 26.481 C 17.941 26.481 18.338 26.079 18.338 25.585 C 18.338 25.164 18.043 24.796 17.636 24.71 C 17.56 24.694 17.508 24.619 17.518 24.539 C 17.523 24.501 17.526 24.463 17.526 24.424 C 17.526 23.909 17.112 23.491 16.604 23.491 C 16.313 23.491 16.045 23.627 15.868 23.864 C 15.831 23.915 15.766 23.936 15.707 23.917 C 15.648 23.899 15.606 23.845 15.602 23.781 C 15.581 23.499 15.451 23.243 15.236 23.061 C 15.015 22.872 14.733 22.788 14.442 22.824 C 14.002 22.879 13.639 23.224 13.559 23.663 C 13.534 23.8 13.535 23.937 13.561 24.07 C 13.575 24.138 13.543 24.206 13.484 24.238 C 13.425 24.27 13.353 24.258 13.307 24.208 C 13.194 24.084 13.04 24.015 12.874 24.015 C 12.565 24.015 12.307 24.26 12.287 24.572 C 12.284 24.616 12.263 24.658 12.228 24.685 C 12.193 24.712 12.149 24.721 12.107 24.712 C 11.936 24.674 11.776 24.685 11.615 24.747 C 11.279 24.875 11.044 25.198 11.03 25.55 C 11.021 25.791 11.105 26.021 11.268 26.198 C 11.438 26.38 11.667 26.481 11.914 26.481 L 14.298 26.481 C 14.38 26.481 14.447 26.55 14.447 26.635 C 14.447 26.721 14.38 26.79 14.298 26.79 L 11.914 26.79 C 11.59 26.79 11.276 26.652 11.053 26.411 C 10.834 26.174 10.72 25.864 10.732 25.537 C 10.75 25.062 11.064 24.628 11.512 24.457 C 11.675 24.394 11.844 24.371 12.015 24.386 C 12.114 23.994 12.464 23.707 12.874 23.707 C 13.003 23.707 13.129 23.736 13.244 23.79 C 13.247 23.728 13.254 23.667 13.265 23.605 C 13.37 23.035 13.839 22.588 14.406 22.517 C 14.778 22.471 15.14 22.579 15.425 22.822 C 15.624 22.991 15.766 23.209 15.842 23.454 C 16.055 23.279 16.321 23.182 16.604 23.182 C 17.276 23.182 17.823 23.739 17.823 24.424 C 17.823 24.43 17.823 24.436 17.823 24.442 C 18.301 24.603 18.636 25.064 18.636 25.586 C 18.636 26.249 18.106 26.79 17.453 26.79 Z M 14.84 26.79 L 14.742 26.79 C 14.66 26.79 14.593 26.721 14.593 26.635 C 14.593 26.55 14.66 26.481 14.742 26.481 L 14.84 26.481 C 14.922 26.481 14.989 26.55 14.989 26.635 C 14.989 26.721 14.922 26.79 14.84 26.79 Z" style="stroke-width: 0.304;"/>
    <path fill="#472b29" d="M 16.991 25.154 C 16.986 25.154 16.98 25.153 16.975 25.152 C 16.934 25.143 16.909 25.101 16.918 25.06 C 16.929 25.012 16.944 24.967 16.965 24.923 C 17.131 24.576 17.586 24.448 17.981 24.638 C 18.018 24.656 18.035 24.702 18.018 24.74 C 18 24.779 17.956 24.796 17.919 24.778 C 17.596 24.623 17.229 24.719 17.099 24.992 C 17.083 25.024 17.072 25.058 17.064 25.093 C 17.056 25.129 17.025 25.154 16.991 25.154 Z M 15.595 26.79 L 15.296 26.79 C 15.213 26.79 15.147 26.721 15.147 26.635 C 15.147 26.55 15.213 26.481 15.296 26.481 L 15.595 26.481 C 15.677 26.481 15.744 26.55 15.744 26.635 C 15.744 26.721 15.677 26.79 15.595 26.79 Z" style="stroke-width: 0.304;"/>
  </g>
</svg>