<svg width="15" height="15" viewBox="0 0 15 15" fill="none" xmlns="http://www.w3.org/2000/svg">
<path d="M14.022 0H0.978516V0.978252H14.022V0Z" fill="#7E7DA0"/>
<path d="M10.7617 13.0439V14.0222H4.24V13.0439H3.26172V15.0005H11.74V13.0439H10.7617Z" fill="#7E7DA0"/>
<path d="M8.80469 11.0869V13.0434H10.7612V12.0652H14.0221V11.0869H8.80469Z" fill="#7E7DA0"/>
<path d="M0.978252 0.978516H0V11.0872H0.978252V0.978516Z" fill="#7E7DA0"/>
<path d="M14.9997 0.978516H14.0215V11.0872H14.9997V0.978516Z" fill="#7E7DA0"/>
<path d="M0.978516 11.0869V12.0652H4.2394V13.0434H6.19591V11.0869H0.978516Z" fill="#7E7DA0"/>
<path d="M1.95703 1.95605V10.1082H13.044V1.95605H1.95703ZM10.1092 7.17345H9.13093V8.1517H10.1092V9.12995H4.89182V8.1517H5.87007V7.17345H4.89182V3.91256H5.87007V2.93431H9.13093V3.91256H10.1092V7.17345Z" fill="#7E7DA0"/>
</svg>
