<?xml version="1.0" encoding="utf-8"?>
<svg width="41" height="41" viewBox="0 0 41 41" fill="none" xmlns="http://www.w3.org/2000/svg" xmlns:bx="https://boxy-svg.com">
  <path d="M 13.12 0.04 L 27.88 -0.04 L 27.88 1.6 L 31.16 1.582 L 31.16 3.222 L 32.8 3.213 L 32.8 4.853 L 34.44 4.844 L 34.44 6.484 L 36.08 6.475 L 36.08 8.115 L 37.72 8.106 L 37.72 9.746 L 39.36 9.737 L 39.36 13.017 L 41 13.008 L 41 27.768 L 39.36 27.777 L 39.36 31.057 L 37.72 31.066 L 37.72 32.706 L 36.08 32.715 L 36.08 34.355 L 34.44 34.364 L 34.44 36.004 L 32.8 36.013 L 32.8 37.653 L 31.16 37.662 L 31.16 39.302 L 27.88 39.32 L 27.88 40.96 L 13.12 41.04 L 13.12 39.4 L 9.84 39.418 L 9.84 37.778 L 8.2 37.787 L 8.2 36.147 L 6.56 36.156 L 6.56 34.516 L 4.92 34.525 L 4.92 32.885 L 3.28 32.894 L 3.28 31.254 L 1.64 31.263 L 1.64 27.983 L 0 27.992 L 0 13.232 L 1.64 13.223 L 1.64 9.943 L 3.28 9.934 L 3.28 8.294 L 4.92 8.285 L 4.92 6.645 L 6.56 6.636 L 6.56 4.996 L 8.2 4.987 L 8.2 3.347 L 9.84 3.338 L 9.84 1.698 L 13.12 1.68 L 13.12 0.04 Z" style="fill: rgb(46, 45, 45);"/>
  <path d="M 3.28 13.215 L 1.64 13.224 L 1.64 27.984 L 3.28 27.975 L 3.28 31.255 L 4.92 31.246 L 4.92 32.886 L 6.56 32.877 L 6.56 34.517 L 8.2 34.508 L 8.2 36.148 L 9.84 36.139 L 9.84 37.779 L 13.12 37.761 L 13.12 39.401 L 27.88 39.32 L 27.88 37.68 L 31.16 37.662 L 31.16 36.022 L 32.8 36.013 L 32.8 34.373 L 34.44 34.364 L 34.44 32.724 L 36.08 32.715 L 36.08 31.075 L 37.72 31.066 L 37.72 27.786 L 39.36 27.777 L 39.36 13.017 L 37.72 13.026 L 37.72 9.746 L 36.08 9.755 L 36.08 8.115 L 34.44 8.124 L 34.44 6.484 L 32.8 6.493 L 32.8 4.853 L 31.16 4.862 L 31.16 3.222 L 27.88 3.24 L 27.88 1.6 L 13.12 1.681 L 13.12 3.321 L 9.84 3.339 L 9.84 4.979 L 8.2 4.988 L 8.2 6.628 L 6.56 6.637 L 6.56 8.277 L 4.92 8.286 L 4.92 9.926 L 3.28 9.935 L 3.28 13.215 Z" fill="#6D87DE" style=""/>
  <path d="M 3.28 13.215 L 1.64 13.224 L 1.64 27.984 L 3.28 27.975 L 3.28 31.255 L 4.92 31.246 L 4.92 32.886 L 6.56 32.877 L 6.56 34.517 L 8.2 34.508 L 8.2 36.148 L 9.84 36.139 L 9.84 37.779 L 13.12 37.761 L 13.12 39.401 L 27.88 39.32 L 27.88 37.68 L 31.16 37.662 L 31.16 36.022 L 32.8 36.013 L 32.8 34.373 L 34.44 34.364 L 34.44 32.724 L 36.08 32.715 L 36.08 31.075 L 37.72 31.066 L 37.72 27.786 L 39.36 27.777 L 39.36 13.017 L 37.72 13.026 L 37.72 9.746 L 36.08 9.755 L 36.08 8.115 L 34.44 8.124 L 34.44 6.484 L 32.8 6.493 L 32.8 4.853 L 31.16 4.862 L 31.16 3.222 L 27.88 3.24 L 27.88 1.6 L 13.12 1.681 L 13.12 3.321 L 9.84 3.339 L 9.84 4.979 L 8.2 4.988 L 8.2 6.628 L 6.56 6.637 L 6.56 8.277 L 4.92 8.286 L 4.92 9.926 L 3.28 9.935 L 3.28 13.215 Z" style="fill: rgb(220, 196, 196);"/>
  <path d="M 3.28 13.214 L 3.28 31.254 L 4.92 31.245 L 4.92 32.885 L 6.56 32.876 L 6.56 34.516 L 8.2 34.507 L 8.2 36.147 L 9.84 36.138 L 9.84 37.778 L 13.12 37.76 L 13.12 39.4 L 27.88 39.319 L 27.88 37.679 L 31.16 37.661 L 31.16 36.021 L 32.8 36.012 L 32.8 34.372 L 34.44 34.363 L 34.44 32.723 L 36.08 32.714 L 36.08 31.074 L 37.72 31.065 L 37.72 27.785 L 39.36 27.776 L 39.36 13.016 L 37.72 13.025 L 37.72 9.745 L 36.08 9.754 L 36.08 8.114 L 32.8 8.132 L 32.8 6.492 L 31.16 6.501 L 31.16 4.861 L 27.88 4.879 L 27.88 3.239 L 13.12 3.32 L 13.12 4.96 L 9.84 4.978 L 9.84 6.618 L 8.2 6.627 L 8.2 8.267 L 6.56 8.276 L 6.56 9.916 L 4.92 9.925 L 4.92 13.205 L 3.28 13.214 Z" style="fill: rgb(235, 235, 235);"/>
  <path d="M 37.72 27.785 L 36.08 27.794 L 36.08 31.074 L 34.44 31.083 L 34.44 32.723 L 32.8 32.732 L 32.8 34.372 L 31.16 34.381 L 31.16 36.021 L 27.88 36.039 L 27.88 37.679 L 13.12 37.76 L 13.12 36.12 L 9.84 36.138 L 9.84 34.498 L 8.2 34.507 L 8.2 32.867 L 6.56 32.876 L 6.56 31.236 L 3.28 31.254 L 3.28 13.214 L 4.92 13.205 L 4.92 9.925 L 6.56 9.916 L 6.56 8.276 L 8.2 8.267 L 8.2 6.627 L 9.84 6.618 L 9.84 4.978 L 13.12 4.96 L 13.12 3.32 L 27.88 3.239 L 27.88 4.879 L 31.16 4.861 L 31.16 6.501 L 32.8 6.492 L 32.8 8.132 L 36.08 8.114 L 36.08 9.754 L 37.72 9.745 L 37.72 27.785 Z" style="fill: rgb(71, 63, 63);"/>
  <path d="M 33.612 13.273 C 31.974 10.898 29.392 9.113 26.713 8.007 C 23.998 6.891 20.915 6.445 18.003 7.047 C 12.978 8.088 8.273 11.907 7.015 16.835 C 6.822 17.174 6.806 17.632 6.732 18.003 C 6.678 18.265 6.644 18.531 6.616 18.797 C 6.61 18.821 6.611 18.851 6.606 18.875 C 6.6 18.894 6.594 18.906 6.595 18.924 C 6.554 19.179 6.52 19.434 6.49 19.688 C 6.49 19.694 6.484 19.694 6.484 19.7 C 6.456 19.774 6.452 19.84 6.467 19.893 C 6.421 20.382 6.394 20.871 6.373 21.361 C 6.346 22.049 6.363 22.741 6.423 23.427 C 6.548 24.765 6.857 26.092 7.376 27.338 C 8.405 29.819 10.339 31.839 12.886 32.877 C 14.333 33.463 15.933 33.771 17.491 33.912 C 19.074 34.052 20.679 33.981 22.247 33.7 C 25.378 33.138 28.274 31.687 30.527 29.489 C 32.707 27.365 34.387 24.67 35.1 21.738 C 35.826 18.819 35.334 15.77 33.612 13.273 Z M 28.534 30.411 C 25.974 32.302 22.808 33.263 19.626 33.375 C 18.013 33.429 16.399 33.241 14.839 32.859 C 13.411 32.508 12.075 31.949 10.92 31.057 C 9.238 29.765 8.137 27.907 7.533 25.923 C 7.213 24.88 7.054 23.795 6.999 22.706 C 6.968 22.153 6.974 21.598 7.012 21.043 C 7.028 20.777 7.044 20.511 7.066 20.245 C 7.066 20.232 7.065 20.215 7.065 20.203 C 7.078 20.075 7.093 19.948 7.101 19.821 C 7.254 19.375 7.218 18.89 7.29 18.428 C 7.331 18.18 7.384 17.931 7.432 17.683 C 7.443 17.633 7.448 17.578 7.451 17.518 C 7.474 17.457 7.503 17.39 7.532 17.329 C 7.554 17.244 7.57 17.153 7.592 17.068 C 7.62 17.012 7.637 16.957 7.629 16.909 C 8.87 12.181 13.481 8.527 18.331 7.595 C 21.275 7.028 24.35 7.601 27.037 8.809 C 29.712 10.006 32.264 11.972 33.673 14.529 C 36.701 20.052 33.274 26.91 28.534 30.411 Z" style="opacity: 0.9; stroke-width: 0.061;" bx:origin="0.463 0.506"/>
  <path d="M 29.444 20.942 C 29.379 20.1 29.401 19.249 29.367 18.406 C 29.316 17.06 29.178 15.341 28.003 14.437 C 27.033 13.69 25.636 13.742 24.47 13.845 C 22.614 14.017 20.777 14.403 18.91 14.449 C 17.161 14.489 15.419 14.524 13.671 14.619 C 13.298 14.734 12.937 14.881 12.584 15.044 C 12.098 15.497 11.664 16 11.361 16.597 C 11.031 17.253 10.931 17.98 10.911 18.698 C 10.893 19.452 11.011 20.202 11.066 20.953 C 11.123 21.721 11.155 22.498 11.255 23.266 C 11.437 24.639 11.87 26.141 13.216 26.821 C 14.38 27.404 15.836 27.266 17.094 27.172 C 19.025 27.022 20.938 27.096 22.869 27.085 C 24.44 27.073 26.07 27.021 27.535 26.398 C 28.236 26.102 28.828 25.67 29.228 25.023 C 29.585 24.443 29.649 23.736 29.645 23.073 C 29.64 22.35 29.499 21.651 29.444 20.942 Z M 28.751 24.456 C 28.162 25.893 26.15 26.216 24.768 26.346 C 23.004 26.506 21.224 26.368 19.463 26.397 C 18.553 26.413 17.64 26.459 16.732 26.528 C 16.078 26.576 15.417 26.607 14.76 26.54 C 13.742 26.44 12.905 26.031 12.454 25.107 C 11.937 24.06 11.871 22.827 11.797 21.686 C 11.721 20.554 11.522 19.398 11.609 18.269 C 11.7 17.102 12.294 16.194 13.147 15.427 C 13.166 15.439 13.186 15.451 13.204 15.456 C 13.241 15.43 13.283 15.411 13.326 15.391 C 13.43 15.345 13.533 15.317 13.644 15.295 C 13.643 15.29 13.65 15.288 13.649 15.282 C 13.699 15.28 13.748 15.279 13.804 15.277 C 13.891 15.267 13.977 15.265 14.058 15.261 C 14.07 15.261 14.082 15.261 14.088 15.261 C 15.761 15.174 17.431 15.142 19.105 15.105 C 20.979 15.059 22.828 14.654 24.696 14.494 C 25.85 14.392 27.284 14.38 28.011 15.408 C 28.459 16.042 28.568 16.918 28.642 17.662 C 28.727 18.516 28.712 19.372 28.734 20.227 C 28.752 20.979 28.858 21.722 28.933 22.473 C 28.991 23.134 29.008 23.825 28.751 24.456 Z" style="opacity: 0.9; stroke-width: 0.061;" bx:origin="0.476 0.502"/>
  <path d="M 22.191 19.89 C 22.185 19.89 22.179 19.885 22.171 19.885 C 22.121 19.868 22.077 19.846 22.034 19.824 C 21.914 19.767 21.801 19.699 21.687 19.632 C 21.441 19.49 21.207 19.335 20.955 19.201 C 20.57 18.98 20.12 18.839 19.718 18.643 C 19.303 18.436 18.887 18.21 18.466 18.009 C 18.353 17.953 18.254 17.963 18.17 18.014 C 18.035 18.061 17.915 18.174 17.921 18.355 C 17.972 19.92 18.136 21.481 18.261 23.043 C 18.272 23.174 18.343 23.256 18.437 23.294 C 18.538 23.369 18.675 23.376 18.802 23.269 C 19.36 22.79 19.965 22.365 20.576 21.945 C 20.885 21.734 21.193 21.523 21.496 21.313 C 21.768 21.123 22.114 20.936 22.309 20.674 C 22.357 20.613 22.374 20.552 22.378 20.492 C 22.632 20.332 22.482 19.933 22.191 19.89 Z M 21.553 20.45 C 21.402 20.557 21.252 20.666 21.101 20.774 C 20.798 20.99 20.49 21.194 20.181 21.404 C 19.746 21.704 19.31 22.009 18.888 22.333 C 18.787 21.166 18.681 19.996 18.622 18.822 C 18.925 18.975 19.227 19.132 19.53 19.289 C 19.926 19.492 20.369 19.626 20.754 19.847 C 21.031 20.005 21.303 20.183 21.581 20.334 C 21.599 20.345 21.625 20.357 21.643 20.368 C 21.62 20.399 21.59 20.425 21.553 20.45 Z" style="opacity: 0.9; stroke-width: 0.061;" bx:origin="0.42 0.48"/>
  <text style="white-space: pre; fill: rgb(51, 51, 51); font-family: Arial, sans-serif; font-size: 3.1px;" x="7.365" y="19.07"> </text>
  <path fill="#c7ede6" d="M 33.859 22.466 C 34.29 21.664 34.536 20.753 34.536 19.784 C 34.536 17.324 32.96 15.228 30.745 14.402 C 30.745 14.401 30.746 14.398 30.746 14.395 C 30.746 10.083 27.182 6.587 22.785 6.587 C 19.078 6.587 15.97 9.079 15.086 12.445 C 14.527 12.265 13.931 12.163 13.31 12.163 C 10.395 12.163 7.995 14.317 7.666 17.09 C 5.693 17.499 4.212 19.216 4.212 21.272 C 4.212 23.633 6.164 25.547 8.571 25.547 C 8.639 25.547 8.704 25.543 8.77 25.539 C 8.769 25.604 8.761 25.668 8.761 25.733 C 8.761 29.943 12.24 33.354 16.531 33.354 C 18.971 33.354 21.146 32.249 22.572 30.524 C 23.397 31.351 24.544 31.867 25.818 31.867 C 27.581 31.867 29.105 30.882 29.862 29.444 C 30.261 29.568 30.684 29.637 31.124 29.637 C 33.427 29.637 35.294 27.806 35.294 25.547 C 35.294 24.317 34.737 23.215 33.859 22.466 Z" style="stroke-width: 0.375;"/>
  <path fill="#fdfcef" d="M 13.878 16.438 L 13.878 16.625 L 15.016 16.625 L 15.016 16.438 C 15.016 16.438 16.624 16.438 17.1 16.438 C 18.042 16.438 18.806 15.69 18.806 14.767 C 18.806 13.898 18.13 13.194 17.269 13.109 C 17.277 13.043 17.29 12.976 17.29 12.907 C 17.29 11.984 16.526 11.234 15.583 11.234 C 15.039 11.234 14.56 11.49 14.247 11.88 C 14.194 10.9 13.375 10.12 12.361 10.12 C 11.315 10.12 10.466 10.951 10.466 11.978 C 10.466 12.143 10.496 12.302 10.538 12.455 C 10.294 12.166 9.931 11.978 9.519 11.978 C 8.843 11.978 8.293 12.474 8.21 13.114 C 8.141 13.105 8.074 13.094 8.003 13.094 C 7.06 13.094 6.297 13.842 6.297 14.767 C 6.297 15.69 7.06 16.438 8.003 16.438 C 8.945 16.438 11.604 16.438 11.604 16.438 L 13.878 16.438 Z" style="stroke-width: 0.375;"/>
  <path fill="#472b29" d="M 12.361 9.933 C 11.212 9.933 10.277 10.851 10.277 11.978 C 10.277 11.984 10.277 11.989 10.277 11.995 C 10.049 11.863 9.788 11.791 9.519 11.791 C 8.825 11.791 8.226 12.261 8.057 12.909 C 8.039 12.909 8.021 12.907 8.003 12.907 C 6.957 12.907 6.107 13.742 6.107 14.767 C 6.107 15.791 6.957 16.625 8.003 16.625 L 13.878 16.625 C 13.983 16.625 14.068 16.542 14.068 16.438 C 14.068 16.337 13.983 16.253 13.878 16.253 L 8.003 16.253 C 7.167 16.253 6.487 15.586 6.487 14.767 C 6.487 13.947 7.167 13.279 8.003 13.279 C 8.047 13.279 8.09 13.285 8.133 13.29 L 8.186 13.297 C 8.195 13.299 8.202 13.299 8.21 13.299 C 8.302 13.299 8.385 13.231 8.398 13.138 C 8.47 12.582 8.952 12.163 9.519 12.163 C 9.855 12.163 10.172 12.313 10.392 12.573 C 10.429 12.617 10.483 12.64 10.538 12.64 C 10.566 12.64 10.596 12.634 10.625 12.62 C 10.704 12.58 10.743 12.491 10.72 12.406 C 10.677 12.245 10.656 12.108 10.656 11.978 C 10.656 11.056 11.421 10.305 12.361 10.305 C 13.264 10.305 14.01 11.001 14.058 11.89 C 14.062 11.967 14.114 12.033 14.191 12.057 C 14.209 12.063 14.228 12.066 14.247 12.066 C 14.304 12.066 14.359 12.04 14.397 11.995 C 14.688 11.63 15.122 11.421 15.583 11.421 C 16.42 11.421 17.1 12.087 17.1 12.907 C 17.1 12.951 17.094 12.993 17.088 13.034 L 17.081 13.087 C 17.075 13.138 17.088 13.187 17.121 13.225 C 17.153 13.265 17.199 13.29 17.25 13.295 C 18.03 13.371 18.616 14.003 18.616 14.767 C 18.616 15.586 17.936 16.253 17.1 16.253 L 15.016 16.253 C 14.911 16.253 14.826 16.337 14.826 16.438 C 14.826 16.542 14.911 16.625 15.016 16.625 L 17.1 16.625 C 18.145 16.625 18.995 15.791 18.995 14.767 C 18.995 13.874 18.356 13.125 17.478 12.952 C 17.478 12.938 17.478 12.923 17.478 12.907 C 17.478 11.882 16.63 11.049 15.583 11.049 C 15.138 11.049 14.715 11.203 14.377 11.482 C 14.15 10.588 13.33 9.933 12.361 9.933 Z" style="stroke-width: 0.375;"/>
  <path fill="#472b29" d="M 11.793 12.535 C 11.261 12.535 10.804 12.907 10.689 13.406 C 10.55 13.323 10.392 13.279 10.23 13.279 C 9.774 13.279 9.396 13.613 9.338 14.048 C 9.26 14.031 9.187 14.023 9.117 14.023 C 8.537 14.023 8.051 14.468 8.009 15.038 C 8.006 15.089 8.047 15.135 8.098 15.137 C 8.101 15.137 8.102 15.137 8.105 15.137 C 8.154 15.137 8.196 15.101 8.199 15.051 C 8.234 14.579 8.636 14.208 9.117 14.208 C 9.204 14.208 9.295 14.224 9.396 14.256 C 9.404 14.258 9.413 14.259 9.422 14.259 C 9.443 14.259 9.464 14.252 9.48 14.239 C 9.505 14.222 9.519 14.191 9.519 14.162 C 9.519 13.778 9.837 13.464 10.23 13.464 C 10.399 13.464 10.565 13.528 10.697 13.641 C 10.714 13.657 10.737 13.664 10.759 13.664 C 10.771 13.664 10.783 13.662 10.794 13.657 C 10.828 13.644 10.85 13.614 10.853 13.579 C 10.892 13.098 11.305 12.722 11.793 12.722 C 11.873 12.722 11.955 12.735 12.052 12.761 C 12.061 12.764 12.07 12.764 12.079 12.764 C 12.119 12.764 12.157 12.737 12.169 12.698 C 12.184 12.648 12.154 12.596 12.104 12.582 C 11.989 12.551 11.891 12.535 11.793 12.535 Z" style="stroke-width: 0.375;"/>
  <path fill="#472b29" d="M 17.055 13.094 C 16.553 13.094 16.105 13.426 15.966 13.904 C 15.953 13.954 15.981 14.005 16.032 14.019 C 16.041 14.022 16.05 14.023 16.057 14.023 C 16.099 14.023 16.136 13.996 16.148 13.955 C 16.265 13.558 16.637 13.279 17.055 13.279 C 17.1 13.279 17.144 13.285 17.186 13.29 C 17.19 13.29 17.194 13.29 17.199 13.29 C 17.244 13.29 17.286 13.256 17.292 13.21 C 17.299 13.159 17.263 13.112 17.211 13.105 C 17.16 13.099 17.108 13.094 17.055 13.094 Z" style="stroke-width: 0.375;"/>
  <path fill="#fff" d="M 10.466 27.778 L 6.676 27.778 C 6.572 27.778 6.487 27.694 6.487 27.592 C 6.487 27.489 6.572 27.406 6.676 27.406 L 10.466 27.406 C 10.571 27.406 10.656 27.489 10.656 27.592 C 10.656 27.694 10.572 27.778 10.466 27.778 Z" style="stroke-width: 0.375;"/>
  <path fill="#fff" d="M 11.604 27.778 L 11.226 27.778 C 11.121 27.778 11.036 27.694 11.036 27.592 C 11.036 27.489 11.121 27.406 11.226 27.406 L 11.604 27.406 C 11.708 27.406 11.793 27.489 11.793 27.592 C 11.793 27.694 11.708 27.778 11.604 27.778 Z" style="stroke-width: 0.375;"/>
  <path fill="#fff" d="M 13.496 28.521 L 10.088 28.521 C 9.984 28.521 9.898 28.438 9.898 28.336 C 9.898 28.233 9.984 28.15 10.088 28.15 L 13.496 28.15 C 13.6 28.15 13.685 28.233 13.685 28.336 C 13.685 28.438 13.6 28.521 13.496 28.521 Z" style="stroke-width: 0.375;"/>
  <path fill="#fff" d="M 9.329 28.521 L 8.951 28.521 C 8.846 28.521 8.761 28.438 8.761 28.336 C 8.761 28.233 8.846 28.15 8.951 28.15 L 9.329 28.15 C 9.434 28.15 9.519 28.233 9.519 28.336 C 9.519 28.438 9.435 28.521 9.329 28.521 Z" style="stroke-width: 0.375;"/>
  <path fill="#fff" d="M 8.192 28.521 L 7.434 28.521 C 7.329 28.521 7.244 28.438 7.244 28.336 C 7.244 28.233 7.329 28.15 7.434 28.15 L 8.192 28.15 C 8.296 28.15 8.382 28.233 8.382 28.336 C 8.382 28.438 8.298 28.521 8.192 28.521 Z" style="stroke-width: 0.375;"/>
  <path fill="#fff" d="M 10.466 29.265 L 9.709 29.265 C 9.604 29.265 9.519 29.182 9.519 29.079 C 9.519 28.977 9.604 28.893 9.709 28.893 L 10.466 28.893 C 10.571 28.893 10.656 28.977 10.656 29.079 C 10.656 29.182 10.571 29.265 10.466 29.265 Z" style="stroke-width: 0.375;"/>
  <path fill="#fff" d="M 11.604 25.919 C 11.536 25.919 11.291 25.919 11.226 25.919 C 11.121 25.919 11.036 26.003 11.036 26.105 C 11.036 26.208 11.121 26.291 11.226 26.291 C 11.291 26.291 11.536 26.291 11.604 26.291 C 11.708 26.291 11.793 26.208 11.793 26.105 C 11.793 26.003 11.708 25.919 11.604 25.919 Z" style="stroke-width: 0.375;"/>
  <path fill="#fff" d="M 11.604 26.663 C 11.536 26.663 9.776 26.663 9.709 26.663 C 9.604 26.663 9.519 26.745 9.519 26.848 C 9.519 26.952 9.604 27.034 9.709 27.034 C 9.776 27.034 11.536 27.034 11.604 27.034 C 11.708 27.034 11.793 26.952 11.793 26.848 C 11.793 26.745 11.708 26.663 11.604 26.663 Z" style="stroke-width: 0.375;"/>
  <path fill="#fff" d="M 13.499 27.406 C 13.431 27.406 12.429 27.406 12.361 27.406 C 12.257 27.406 12.173 27.489 12.173 27.592 C 12.173 27.694 12.257 27.778 12.361 27.778 C 12.429 27.778 13.431 27.778 13.499 27.778 C 13.603 27.778 13.688 27.694 13.688 27.592 C 13.688 27.489 13.603 27.406 13.499 27.406 Z" style="stroke-width: 0.375;"/>
  <g transform="matrix(0.37905, 0, 0, 0.371764, 0.800089, 1.382378)">
    <path fill="#fff" d="M86.5,45h-10c-0.276,0-0.5-0.224-0.5-0.5s0.224-0.5,0.5-0.5h10c0.276,0,0.5,0.224,0.5,0.5 S86.776,45,86.5,45z"/>
    <path fill="#fff" d="M90.5,45h-2c-0.276,0-0.5-0.224-0.5-0.5s0.224-0.5,0.5-0.5h2c0.276,0,0.5,0.224,0.5,0.5 S90.776,45,90.5,45z"/>
    <path fill="#fff" d="M95.5,47h-10c-0.276,0-0.5-0.224-0.5-0.5s0.224-0.5,0.5-0.5h10c0.276,0,0.5,0.224,0.5,0.5 S95.777,47,95.5,47z"/>
    <path fill="#fff" d="M83.5,47h-1c-0.276,0-0.5-0.224-0.5-0.5s0.224-0.5,0.5-0.5h1c0.276,0,0.5,0.224,0.5,0.5 S83.776,47,83.5,47z"/>
    <path fill="#fff" d="M80.47,47H78.5c-0.276,0-0.5-0.224-0.5-0.5s0.224-0.5,0.5-0.5h1.97c0.276,0,0.5,0.224,0.5,0.5 S80.746,47,80.47,47z"/>
    <path fill="#fff" d="M89.5,43h-5c-0.276,0-0.5-0.224-0.5-0.5s0.224-0.5,0.5-0.5h5c0.276,0,0.5,0.224,0.5,0.5 S89.777,43,89.5,43z"/>
    <path fill="#fff" d="M86.5,49h-2c-0.276,0-0.5-0.224-0.5-0.5s0.224-0.5,0.5-0.5h2c0.276,0,0.5,0.224,0.5,0.5 S86.776,49,86.5,49z"/>
  </g>
  <g transform="matrix(0.37905, 0, 0, 0.371764, 0.800089, 1.382378)">
    <path fill="#472b29" d="M37.375,74.3c-3.681,0-6.675-2.994-6.675-6.675v-29.25c0-3.681,2.994-6.675,6.675-6.675h29.25 c3.681,0,6.675,2.994,6.675,6.675v29.25c0,3.681-2.994,6.675-6.675,6.675H37.375z"/>
    <path fill="#472b29" d="M66.625,32.4c3.295,0,5.975,2.68,5.975,5.975v29.25c0,3.295-2.68,5.975-5.975,5.975h-29.25 c-3.295,0-5.975-2.68-5.975-5.975v-29.25c0-3.295,2.68-5.975,5.975-5.975H66.625 M66.625,31h-29.25 C33.319,31,30,34.319,30,38.375v29.25C30,71.681,33.319,75,37.375,75h29.25C70.681,75,74,71.681,74,67.625v-29.25 C74,34.319,70.681,31,66.625,31L66.625,31z"/>
  </g>
  <g transform="matrix(0.37905, 0, 0, 0.371764, 0.800089, 1.382378)">
    <path fill="#ee3e54" d="M68,45c0,0-7,0-8-8h-6v14.024V58l-0.05,3c-0.252,2.247-2.136,4-4.45,4c-2.485,0-4.5-2.015-4.5-4.5 s2.015-4.5,4.5-4.5c0.171,0,0.334,0.032,0.5,0.05v-6.025C49.833,50.017,49.669,50,49.5,50C43.701,50,39,54.701,39,60.5 C39,66.299,43.701,71,49.5,71c5.63,0,10.212-4.435,10.475-10H60V48.24c1.98,1.623,4.584,2.76,8,2.76C68,49,68,45,68,45z"/>
  </g>
  <g transform="matrix(0.37905, 0, 0, 0.371764, 0.800089, 1.382378)">
    <path fill="#472b29" d="M60,59c-0.138,0-0.25-0.112-0.25-0.25v-8.625c0-0.138,0.112-0.25,0.25-0.25s0.25,0.112,0.25,0.25 v8.625C60.25,58.888,60.138,59,60,59z"/>
  </g>
  <g transform="matrix(0.37905, 0, 0, 0.371764, 0.800089, 1.382378)">
    <path fill="#472b29" d="M49.5,71.25c-0.799,0-1.595-0.088-2.366-0.261c-0.135-0.03-0.22-0.164-0.189-0.299 c0.03-0.134,0.158-0.221,0.299-0.189c1.468,0.33,3.038,0.33,4.5,0.002c0.324-0.071,0.647-0.16,0.963-0.265 c0.398-0.132,0.788-0.288,1.157-0.463c3.438-1.624,5.683-4.991,5.861-8.787c0.007-0.134,0.116-0.238,0.25-0.238 c0.138,0,0.263,0.112,0.263,0.25c0,0.034-0.006,0.066-0.018,0.097c-0.216,3.946-2.563,7.439-6.143,9.13 c-0.388,0.185-0.796,0.348-1.215,0.486c-0.331,0.109-0.671,0.203-1.011,0.278C51.087,71.163,50.296,71.25,49.5,71.25z"/>
  </g>
  <g transform="matrix(0.37905, 0, 0, 0.371764, 0.800089, 1.382378)">
    <path fill="#472b29" d="M45.354,58.998c-0.032,0-0.065-0.006-0.098-0.02c-0.127-0.054-0.187-0.201-0.133-0.328 c0.746-1.762,2.464-2.9,4.377-2.9c0.085,0,0.168,0.007,0.25,0.017v-5.741c0-0.138,0.112-0.25,0.25-0.25s0.25,0.112,0.25,0.25v6.025 c0,0.071-0.03,0.139-0.083,0.187c-0.054,0.047-0.124,0.067-0.194,0.062l-0.154-0.02c-0.104-0.014-0.21-0.029-0.318-0.029 c-1.712,0-3.249,1.019-3.916,2.596C45.543,58.94,45.451,58.998,45.354,58.998z"/>
  </g>
  <g transform="matrix(0.37905, 0, 0, 0.371764, 0.800089, 1.382378)">
    <path fill="#472b29" d="M68,51.25c-1.45,0-2.831-0.205-4.106-0.609c-0.132-0.042-0.205-0.183-0.163-0.313 c0.042-0.132,0.187-0.206,0.313-0.163c1.153,0.365,2.399,0.562,3.706,0.584V45.24c-0.66-0.044-2.505-0.277-4.288-1.503 c-0.114-0.078-0.143-0.234-0.064-0.348c0.079-0.113,0.235-0.141,0.348-0.064c2.048,1.408,4.233,1.425,4.255,1.425 c0.138,0,0.25,0.112,0.25,0.25v6C68.25,51.138,68.138,51.25,68,51.25z"/>
  </g>
  <g transform="matrix(0.37905, 0, 0, 0.371764, 0.800089, 1.382378)">
    <path fill="#fff" d="M47.5,69.5c-6.065,0-11-4.935-11-11s4.935-11,11-11c0.12,0,0.237,0.008,0.355,0.016l0.168,0.011 c0.267,0.012,0.477,0.232,0.477,0.499v6.025c0,0.143-0.061,0.277-0.167,0.373c-0.092,0.082-0.211,0.127-0.333,0.127 c-0.019,0-0.216-0.023-0.216-0.023C47.69,54.515,47.597,54.5,47.5,54.5c-2.206,0-4,1.794-4,4s1.794,4,4,4 c2.026,0,3.726-1.528,3.952-3.556l0.048-2.953V35c0-0.276,0.224-0.5,0.5-0.5h6c0.252,0,0.465,0.188,0.496,0.438 c0.932,7.45,7.237,7.562,7.505,7.563c0.275,0.001,0.499,0.225,0.499,0.5v6c0,0.276-0.224,0.5-0.5,0.5 c-2.828,0-5.346-0.758-7.5-2.255V59c0,0.064-0.013,0.126-0.034,0.184C58.109,64.981,53.323,69.5,47.5,69.5z"/>
    <path fill="#472b29" d="M58,35c1,8,8,8,8,8s0,4,0,6c-3.416,0-6.02-1.136-8-2.76V59h-0.025C57.712,64.565,53.13,69,47.5,69 C41.701,69,37,64.299,37,58.5C37,52.701,41.701,48,47.5,48c0.169,0,0.333,0.017,0.5,0.025v6.025C47.834,54.032,47.671,54,47.5,54 c-2.485,0-4.5,2.015-4.5,4.5s2.015,4.5,4.5,4.5c2.314,0,4.198-1.753,4.45-4L52,56v-6.976V35H58 M58,34h-6c-0.552,0-1,0.448-1,1 v14.024V56l-0.049,2.933C50.732,60.685,49.257,62,47.5,62c-1.93,0-3.5-1.57-3.5-3.5s1.57-3.5,3.5-3.5 c0.075,0,0.147,0.013,0.219,0.023l0.169,0.022c0.037,0.004,0.074,0.006,0.111,0.006c0.245,0,0.482-0.09,0.667-0.255 C48.879,54.606,49,54.335,49,54.05v-6.025c0-0.534-0.419-0.974-0.953-0.999l-0.156-0.01C47.761,47.008,47.632,47,47.5,47 C41.159,47,36,52.159,36,58.5S41.159,70,47.5,70c6.069,0,11.06-4.695,11.461-10.729C58.986,59.185,59,59.094,59,59V48.161 C61.057,49.382,63.403,50,66,50c0.552,0,1-0.448,1-1v-6c0-0.552-0.448-1-1-1c-0.246-0.002-6.134-0.131-7.008-7.124 C58.93,34.376,58.504,34,58,34L58,34z"/>
  </g>
  <g transform="matrix(0.37905, 0, 0, 0.371764, 0.800089, 1.382378)">
    <path fill="#83ccb7" d="M66,43.892C66,43.352,66,43,66,43s-2.649-0.007-4.921-1.871C62.687,43.039,64.78,43.683,66,43.892z"/>
    <path fill="#83ccb7" d="M44.866,62.134C45.684,63.26,47.002,64,48.5,64c2.314,0,4.198-1.753,4.45-4L53,57v-6.976V36h5.181 c-0.067-0.324-0.136-0.645-0.181-1h-6v14.024V56l-0.05,3c-0.252,2.247-2.136,4-4.45,4C46.513,63,45.608,62.673,44.866,62.134z"/>
    <path fill="#83ccb7" d="M38,59.5c0-5.63,4.435-10.212,10-10.475v-1C47.833,48.017,47.669,48,47.5,48 C41.701,48,37,52.701,37,58.5c0,3.154,1.398,5.976,3.599,7.901C38.985,64.555,38,62.145,38,59.5z"/>
  </g>
  <g transform="matrix(0.37905, 0, 0, 0.371764, 0.800089, 1.382378)">
    <path fill="#472b29" d="M53,48.25c-0.138,0-0.25-0.112-0.25-0.25V36c0-0.138,0.112-0.25,0.25-0.25h5.181 c0.138,0,0.25,0.112,0.25,0.25s-0.112,0.25-0.25,0.25H53.25V48C53.25,48.138,53.138,48.25,53,48.25z"/>
    <path fill="#472b29" d="M53,57.25c-0.138,0-0.25-0.112-0.25-0.25v-6.976c0-0.138,0.112-0.25,0.25-0.25 s0.25,0.112,0.25,0.25V57C53.25,57.138,53.138,57.25,53,57.25z"/>
    <path fill="#472b29" d="M48.5,64.25c-0.138,0-0.25-0.112-0.25-0.25s0.112-0.25,0.25-0.25c2.154,0,3.96-1.624,4.201-3.777 l0.022-1.436c0.002-0.137,0.114-0.246,0.25-0.246c0.001,0,0.003,0,0.004,0c0.139,0.002,0.248,0.116,0.246,0.254l-0.024,1.459 C52.929,62.435,50.909,64.25,48.5,64.25z"/>
    <path fill="#472b29" d="M44.367,50.107c-0.097,0-0.189-0.057-0.229-0.151c-0.055-0.127,0.004-0.274,0.131-0.328 c1.181-0.505,2.432-0.792,3.72-0.853c0.138,0,0.254,0.101,0.262,0.238c0.006,0.138-0.101,0.255-0.238,0.262 c-1.228,0.058-2.421,0.331-3.546,0.812C44.434,50.101,44.4,50.107,44.367,50.107z"/>
    <path fill="#472b29" d="M38,59.75c-0.138,0-0.25-0.112-0.25-0.25c0-3.713,1.881-7.112,5.03-9.093 c0.115-0.07,0.271-0.039,0.345,0.079c0.073,0.116,0.038,0.271-0.079,0.345c-3.003,1.888-4.796,5.129-4.796,8.669 C38.25,59.638,38.138,59.75,38,59.75z"/>
  </g>
  <g transform="matrix(0.37905, 0, 0, 0.371764, 0.800089, 1.382378)">
    <path fill="#fdfcef" d="M81.5,69.5c0,0,1.567,0,3.5,0s3.5-1.567,3.5-3.5c0-1.781-1.335-3.234-3.055-3.455 C85.473,62.366,85.5,62.187,85.5,62c0-1.933-1.567-3.5-3.5-3.5c-1.032,0-1.95,0.455-2.59,1.165 c-0.384-1.808-1.987-3.165-3.91-3.165c-2.209,0-4,1.791-4,4c0,0.191,0.03,0.374,0.056,0.558C71.128,60.714,70.592,60.5,70,60.5 c-1.228,0-2.245,0.887-2.455,2.055C67.366,62.527,67.187,62.5,67,62.5c-1.933,0-3.5,1.567-3.5,3.5s1.567,3.5,3.5,3.5s7.5,0,7.5,0 V70h7V69.5z"/>
    <path fill="#472b29" d="M83.25,65C83.112,65,83,64.888,83,64.75c0-1.223,0.995-2.218,2.218-2.218 c0.034,0.009,0.737-0.001,1.244,0.136c0.133,0.036,0.212,0.173,0.176,0.306c-0.036,0.134-0.173,0.213-0.306,0.176 c-0.444-0.12-1.1-0.12-1.113-0.118c-0.948,0-1.719,0.771-1.719,1.718C83.5,64.888,83.388,65,83.25,65z"/>
    <circle cx="76.5" cy="69.5" r=".5" fill="#472b29"/>
    <path fill="#472b29" d="M85,70h-3.5c-0.276,0-0.5-0.224-0.5-0.5s0.224-0.5,0.5-0.5H85c1.654,0,3-1.346,3-3 c0-1.496-1.125-2.768-2.618-2.959c-0.134-0.018-0.255-0.088-0.336-0.196s-0.115-0.244-0.094-0.377C84.975,62.314,85,62.16,85,62 c0-1.654-1.346-3-3-3c-0.85,0-1.638,0.355-2.219,1c-0.125,0.139-0.321,0.198-0.5,0.148c-0.182-0.049-0.321-0.195-0.36-0.379 C78.58,58.165,77.141,57,75.5,57c-1.93,0-3.5,1.57-3.5,3.5c0,0.143,0.021,0.28,0.041,0.418c0.029,0.203-0.063,0.438-0.242,0.54 c-0.179,0.102-0.396,0.118-0.556-0.01C70.878,61.155,70.449,61,70,61c-0.966,0-1.792,0.691-1.963,1.644 c-0.048,0.267-0.296,0.446-0.569,0.405C67.314,63.025,67.16,63,67,63c-1.654,0-3,1.346-3,3s1.346,3,3,3h7.5 c0.276,0,0.5,0.224,0.5,0.5S74.776,70,74.5,70H67c-2.206,0-4-1.794-4-4s1.794-4,4-4c0.059,0,0.116,0.002,0.174,0.006 C67.588,60.82,68.711,60,70,60c0.349,0,0.689,0.061,1.011,0.18C71.176,57.847,73.126,56,75.5,56c1.831,0,3.466,1.127,4.153,2.774 C80.333,58.276,81.155,58,82,58c2.206,0,4,1.794,4,4c0,0.048-0.001,0.095-0.004,0.142C87.739,62.59,89,64.169,89,66 C89,68.206,87.206,70,85,70z"/>
    <path fill="#472b29" d="M79.5,69c-0.159,0-0.841,0-1,0c-0.276,0-0.5,0.224-0.5,0.5c0,0.276,0.224,0.5,0.5,0.5 c0.159,0,0.841,0,1,0c0.276,0,0.5-0.224,0.5-0.5C80,69.224,79.776,69,79.5,69z"/>
  </g>
</svg>