<?xml version="1.0" encoding="utf-8"?>
<svg width="41" height="41" viewBox="0 0 41 41" fill="none" xmlns="http://www.w3.org/2000/svg" xmlns:bx="https://boxy-svg.com">
  <path d="M13.12 0H27.88V1.64H31.16V3.28H32.8V4.92H34.44V6.56H36.08V8.2H37.72V9.84H39.36V13.12H41V27.88H39.36V31.16H37.72V32.8H36.08V34.44H34.44V36.08H32.8V37.72H31.16V39.36H27.88V41H13.12V39.36H9.84V37.72H8.2V36.08H6.56V34.44H4.92V32.8H3.28V31.16H1.64V27.88H0V13.12H1.64V9.84H3.28V8.2H4.92V6.56H6.56V4.92H8.2V3.28H9.84V1.64H13.12V0Z" style="fill: rgb(255, 0, 0);"/>
  <path d="M3.27989 13.1206H1.63989V27.8806H3.27989V31.1606H4.91989V32.8006H6.55989V34.4406H8.19989V36.0806H9.83989V37.7206H13.1199V39.3606H27.8799V37.7206H31.1599V36.0806H32.7999V34.4406H34.4399V32.8006H36.0799V31.1606H37.7199V27.8806H39.3599V13.1206H37.7199V9.84063H36.0799V8.20063H34.4399V6.56063H32.7999V4.92063H31.1599V3.28063H27.8799V1.64062H13.1199V3.28063H9.83989V4.92063H8.19989V6.56063H6.55989V8.20063H4.91989V9.84063H3.27989V13.1206Z" fill="#6D87DE"/>
  <path d="M3.27989 13.1206H1.63989V27.8806H3.27989V31.1606H4.91989V32.8006H6.55989V34.4406H8.19989V36.0806H9.83989V37.7206H13.1199V39.3606H27.8799V37.7206H31.1599V36.0806H32.7999V34.4406H34.4399V32.8006H36.0799V31.1606H37.7199V27.8806H39.3599V13.1206H37.7199V9.84063H36.0799V8.20063H34.4399V6.56063H32.7999V4.92063H31.1599V3.28063H27.8799V1.64062H13.1199V3.28063H9.83989V4.92063H8.19989V6.56063H6.55989V8.20063H4.91989V9.84063H3.27989V13.1206Z" style="fill: rgb(255, 0, 0);"/>
  <path d="M3.28003 13.1193V31.1593H4.92003V32.7993H6.56003V34.4393H8.20003V36.0793H9.84003V37.7193H13.12V39.3593H27.88V37.7193H31.16V36.0793H32.8V34.4393H34.44V32.7993H36.08V31.1593H37.72V27.8793H39.36V13.1193H37.72V9.8393H36.08V8.1993H32.8V6.5593H31.16V4.9193H27.88V3.2793H13.12V4.9193H9.84003V6.5593H8.20003V8.1993H6.56003V9.8393H4.92003V13.1193H3.28003Z" style="fill: rgb(255, 0, 0);"/>
  <path d="M37.72 27.8793H36.08V31.1593H34.44V32.7993H32.8V34.4393H31.16V36.0793H27.88V37.7193H13.12V36.0793H9.84003V34.4393H8.20003V32.7993H6.56003V31.1593H3.28003V13.1193H4.92003V9.8393H6.56003V8.1993H8.20003V6.5593H9.84003V4.9193H13.12V3.2793H27.88V4.9193H31.16V6.5593H32.8V8.1993H36.08V9.8393H37.72V27.8793Z" style="fill: rgb(150, 45, 45);"/>
  <path fill="#EF4823" d="M 33.673 14.601 C 32.271 12.03 29.712 10.056 27.037 8.845 C 24.35 7.622 21.269 7.032 18.331 7.583 C 13.481 8.489 8.87 12.117 7.635 16.833 C 7.637 16.887 7.627 16.936 7.596 16.991 C 7.576 17.076 7.554 17.166 7.538 17.251 C 7.509 17.312 7.481 17.373 7.457 17.441 C 7.453 17.495 7.443 17.555 7.438 17.604 C 7.39 17.853 7.331 18.102 7.296 18.35 C 7.224 18.817 7.26 19.297 7.107 19.741 C 7.099 19.869 7.084 19.996 7.071 20.122 C 7.071 20.141 7.071 20.153 7.072 20.165 C 7.05 20.431 7.034 20.696 7.018 20.962 C 6.987 21.518 6.981 22.072 7.005 22.625 C 7.06 23.715 7.226 24.8 7.539 25.845 C 8.143 27.833 9.244 29.696 10.926 30.999 C 12.081 31.897 13.417 32.469 14.846 32.822 C 16.405 33.213 18.019 33.409 19.632 33.364 C 22.814 33.27 25.98 32.327 28.54 30.45 C 33.274 26.98 36.701 20.141 33.673 14.601 Z M 29.645 23.117 C 29.649 23.78 29.585 24.487 29.227 25.065 C 28.834 25.71 28.242 26.138 27.535 26.432 C 26.07 27.044 24.44 27.095 22.869 27.091 C 20.938 27.092 19.019 27.007 17.094 27.147 C 15.835 27.235 14.38 27.371 13.216 26.775 C 11.864 26.089 11.43 24.584 11.255 23.209 C 11.155 22.44 11.117 21.67 11.066 20.895 C 11.01 20.143 10.899 19.394 10.911 18.64 C 10.931 17.922 11.025 17.19 11.361 16.54 C 11.662 15.947 12.098 15.444 12.583 14.996 C 12.937 14.84 13.298 14.695 13.671 14.575 C 15.417 14.484 17.161 14.465 18.91 14.434 C 20.777 14.399 22.614 14.022 24.47 13.861 C 25.635 13.758 27.033 13.72 28.003 14.473 C 29.178 15.376 29.316 17.101 29.366 18.45 C 29.394 19.293 29.373 20.143 29.444 20.984 C 29.499 21.7 29.64 22.4 29.645 23.117 Z" style="opacity: 0.9; stroke-width: 0.061;" bx:origin="0.462 0.507"/>
  <path fill="#D6E5E5" d="M 28.927 22.52 C 28.852 21.768 28.746 21.024 28.728 20.272 C 28.706 19.417 28.72 18.561 28.636 17.707 C 28.562 16.962 28.452 16.081 28.005 15.449 C 27.278 14.417 25.843 14.421 24.69 14.518 C 22.828 14.672 20.979 15.062 19.099 15.097 C 17.425 15.132 15.755 15.148 14.082 15.226 C 14.07 15.226 14.064 15.226 14.05 15.227 C 13.965 15.229 13.878 15.232 13.798 15.241 C 13.748 15.242 13.699 15.243 13.643 15.245 C 13.643 15.252 13.637 15.252 13.638 15.257 C 13.527 15.279 13.416 15.306 13.32 15.352 C 13.276 15.372 13.241 15.39 13.198 15.416 C 13.178 15.411 13.16 15.399 13.141 15.388 C 12.288 16.149 11.693 17.054 11.603 18.22 C 11.51 19.35 11.716 20.507 11.791 21.638 C 11.865 22.78 11.931 24.013 12.448 25.063 C 12.905 25.989 13.736 26.397 14.754 26.509 C 15.411 26.579 16.066 26.552 16.726 26.507 C 17.633 26.443 18.541 26.402 19.457 26.391 C 21.224 26.372 23.004 26.52 24.762 26.369 C 26.144 26.247 28.156 25.936 28.745 24.502 C 29.008 23.872 28.991 23.18 28.927 22.52 Z M 22.384 20.49 C 22.379 20.551 22.363 20.612 22.315 20.673 C 22.12 20.938 21.774 21.118 21.501 21.306 C 21.199 21.521 20.891 21.724 20.582 21.933 C 19.971 22.35 19.366 22.772 18.808 23.248 C 18.681 23.354 18.544 23.341 18.443 23.271 C 18.349 23.232 18.285 23.144 18.268 23.017 C 18.142 21.455 17.979 19.894 17.926 18.329 C 17.92 18.148 18.035 18.036 18.175 17.989 C 18.254 17.944 18.359 17.934 18.472 17.986 C 18.893 18.189 19.303 18.417 19.724 18.627 C 20.12 18.832 20.576 18.973 20.962 19.191 C 21.207 19.334 21.447 19.483 21.693 19.626 C 21.807 19.694 21.92 19.763 22.04 19.82 C 22.084 19.843 22.127 19.865 22.177 19.882 C 22.19 19.887 22.196 19.887 22.196 19.887 C 22.482 19.944 22.632 20.344 22.384 20.49 Z" style="opacity: 0.9; stroke-width: 0.061;" bx:origin="0.475 0.502"/>
  <path fill="#EF4823" d="M 21.587 20.346 C 21.309 20.186 21.038 20.014 20.76 19.853 C 20.376 19.631 19.932 19.489 19.536 19.289 C 19.233 19.137 18.931 18.978 18.63 18.819 C 18.687 19.992 18.793 21.157 18.894 22.329 C 19.31 22.009 19.746 21.706 20.187 21.409 C 20.496 21.2 20.804 20.992 21.107 20.783 C 21.258 20.676 21.409 20.569 21.56 20.461 C 21.59 20.436 21.62 20.411 21.656 20.386 C 21.631 20.369 21.612 20.358 21.587 20.346 Z" style="opacity: 0.9; stroke-width: 0.061;" bx:origin="0.4 0.491"/>
  <path d="M 33.612 13.345 C 31.974 10.961 29.392 9.162 26.713 8.041 C 23.998 6.91 20.915 6.447 18.003 7.033 C 12.978 8.047 8.273 11.84 7.015 16.761 C 6.822 17.099 6.806 17.557 6.732 17.928 C 6.678 18.189 6.644 18.455 6.616 18.721 C 6.61 18.745 6.611 18.775 6.606 18.799 C 6.6 18.818 6.594 18.83 6.595 18.848 C 6.554 19.103 6.52 19.357 6.49 19.611 C 6.49 19.617 6.484 19.617 6.484 19.623 C 6.456 19.697 6.452 19.763 6.467 19.816 C 6.421 20.305 6.394 20.794 6.373 21.284 C 6.346 21.972 6.363 22.664 6.423 23.35 C 6.548 24.689 6.857 26.017 7.376 27.266 C 8.405 29.753 10.339 31.783 12.886 32.835 C 14.333 33.429 15.933 33.746 17.491 33.896 C 19.074 34.044 20.679 33.982 22.247 33.71 C 25.378 33.165 28.274 31.73 30.527 29.544 C 32.707 27.432 34.387 24.746 35.1 21.818 C 35.826 18.903 35.334 15.851 33.612 13.345 Z M 28.534 30.455 C 25.974 32.332 22.808 33.276 19.626 33.37 C 18.013 33.415 16.399 33.219 14.839 32.828 C 13.411 32.469 12.075 31.903 10.92 31.005 C 9.238 29.703 8.137 27.839 7.533 25.852 C 7.213 24.807 7.054 23.721 6.999 22.632 C 6.968 22.079 6.974 21.524 7.012 20.969 C 7.028 20.703 7.044 20.437 7.066 20.171 C 7.066 20.158 7.065 20.141 7.065 20.129 C 7.078 20.002 7.093 19.875 7.101 19.748 C 7.254 19.303 7.218 18.817 7.29 18.356 C 7.331 18.108 7.384 17.859 7.432 17.611 C 7.443 17.562 7.448 17.507 7.451 17.447 C 7.474 17.386 7.503 17.319 7.532 17.258 C 7.554 17.173 7.57 17.082 7.592 16.997 C 7.62 16.942 7.637 16.887 7.629 16.839 C 8.87 12.117 13.481 8.489 18.331 7.583 C 21.275 7.032 24.35 7.622 27.037 8.845 C 29.712 10.056 32.264 12.036 33.673 14.601 C 36.701 20.141 33.274 26.98 28.534 30.455 Z" style="opacity: 0.9; stroke-width: 0.061;" bx:origin="0.463 0.506"/>
  <path d="M 29.444 20.991 C 29.379 20.149 29.401 19.298 29.367 18.455 C 29.316 17.108 29.178 15.388 28.003 14.478 C 27.033 13.726 25.636 13.77 24.47 13.867 C 22.614 14.029 20.777 14.405 18.91 14.44 C 17.161 14.471 15.419 14.496 13.671 14.582 C 13.298 14.695 12.937 14.84 12.584 15.001 C 12.098 15.451 11.664 15.952 11.361 16.547 C 11.031 17.201 10.931 17.928 10.911 18.646 C 10.893 19.399 11.011 20.15 11.066 20.901 C 11.123 21.67 11.155 22.447 11.255 23.215 C 11.437 24.589 11.87 26.094 13.216 26.781 C 14.38 27.371 15.836 27.24 17.094 27.153 C 19.025 27.014 20.938 27.098 22.869 27.098 C 24.44 27.095 26.07 27.051 27.535 26.437 C 28.236 26.144 28.828 25.716 29.228 25.071 C 29.585 24.493 29.649 23.786 29.645 23.123 C 29.64 22.4 29.499 21.7 29.444 20.991 Z M 28.751 24.501 C 28.162 25.935 26.15 26.247 24.768 26.369 C 23.004 26.52 21.224 26.372 19.463 26.391 C 18.553 26.402 17.64 26.443 16.732 26.507 C 16.078 26.552 15.417 26.579 14.76 26.509 C 13.742 26.403 12.905 25.989 12.454 25.063 C 11.937 24.013 11.871 22.78 11.797 21.638 C 11.721 20.506 11.522 19.349 11.609 18.22 C 11.7 17.054 12.294 16.149 13.147 15.387 C 13.166 15.399 13.186 15.411 13.204 15.416 C 13.241 15.39 13.283 15.372 13.326 15.352 C 13.43 15.306 13.533 15.279 13.644 15.257 C 13.643 15.252 13.65 15.251 13.649 15.245 C 13.699 15.243 13.748 15.242 13.804 15.24 C 13.891 15.231 13.977 15.229 14.058 15.226 C 14.07 15.226 14.082 15.226 14.088 15.226 C 15.761 15.148 17.431 15.125 19.105 15.097 C 20.979 15.062 22.828 14.667 24.696 14.517 C 25.85 14.421 27.284 14.417 28.011 15.449 C 28.459 16.086 28.568 16.962 28.642 17.707 C 28.727 18.561 28.712 19.417 28.734 20.272 C 28.752 21.024 28.858 21.768 28.933 22.519 C 28.991 23.18 29.008 23.872 28.751 24.501 Z" style="opacity: 0.9; stroke-width: 0.061;" bx:origin="0.476 0.502"/>
  <path d="M 22.191 19.899 C 22.185 19.899 22.179 19.894 22.171 19.894 C 22.121 19.877 22.077 19.855 22.034 19.832 C 21.914 19.775 21.801 19.706 21.687 19.638 C 21.441 19.495 21.207 19.339 20.955 19.203 C 20.57 18.98 20.12 18.837 19.718 18.639 C 19.303 18.429 18.887 18.201 18.466 17.998 C 18.353 17.941 18.254 17.951 18.17 18.001 C 18.035 18.048 17.915 18.16 17.921 18.341 C 17.972 19.906 18.136 21.468 18.261 23.031 C 18.272 23.162 18.343 23.244 18.437 23.283 C 18.538 23.358 18.675 23.366 18.802 23.26 C 19.36 22.784 19.965 22.362 20.576 21.945 C 20.885 21.736 21.193 21.527 21.496 21.318 C 21.768 21.13 22.114 20.945 22.309 20.684 C 22.357 20.623 22.374 20.562 22.378 20.502 C 22.632 20.344 22.482 19.944 22.191 19.899 Z M 21.553 20.456 C 21.402 20.562 21.252 20.67 21.101 20.777 C 20.798 20.992 20.49 21.194 20.181 21.402 C 19.746 21.7 19.31 22.002 18.888 22.324 C 18.787 21.157 18.681 19.986 18.622 18.812 C 18.925 18.966 19.227 19.125 19.53 19.284 C 19.926 19.489 20.369 19.625 20.754 19.848 C 21.031 20.008 21.303 20.187 21.581 20.34 C 21.599 20.351 21.625 20.363 21.643 20.374 C 21.62 20.405 21.59 20.431 21.553 20.456 Z" style="opacity: 0.9; stroke-width: 0.061;" bx:origin="0.42 0.481"/>
</svg>