<?xml version="1.0" encoding="UTF-8" standalone="no"?>
<!-- Created with Inkscape (http://www.inkscape.org/) -->

<svg
   xmlns:dc="http://purl.org/dc/elements/1.1/"
   xmlns:cc="http://creativecommons.org/ns#"
   xmlns:rdf="http://www.w3.org/1999/02/22-rdf-syntax-ns#"
   xmlns:svg="http://www.w3.org/2000/svg"
   xmlns="http://www.w3.org/2000/svg"
   xmlns:sodipodi="http://sodipodi.sourceforge.net/DTD/sodipodi-0.dtd"
   xmlns:inkscape="http://www.inkscape.org/namespaces/inkscape"
   width="98mm"
   height="82mm"
   viewBox="0 0 98 82"
   version="1.1"
   id="svg8"
   inkscape:version="0.92.1 r15371"
   sodipodi:docname="coinyep_color.svg">
  <defs
     id="defs2" />
  <sodipodi:namedview
     id="base"
     pagecolor="#ffffff"
     bordercolor="#666666"
     borderopacity="1.0"
     inkscape:pageopacity="0.0"
     inkscape:pageshadow="2"
     inkscape:zoom="0.49497475"
     inkscape:cx="-388.56314"
     inkscape:cy="249.8968"
     inkscape:document-units="mm"
     inkscape:current-layer="text12-0"
     showgrid="false"
     inkscape:window-width="1360"
     inkscape:window-height="706"
     inkscape:window-x="1358"
     inkscape:window-y="-8"
     inkscape:window-maximized="1" />
  <metadata
     id="metadata5">
    <rdf:RDF>
      <cc:Work
         rdf:about="">
        <dc:format>image/svg+xml</dc:format>
        <dc:type
           rdf:resource="http://purl.org/dc/dcmitype/StillImage" />
        <dc:title />
      </cc:Work>
    </rdf:RDF>
  </metadata>
  <g
     inkscape:label="Livello 1"
     inkscape:groupmode="layer"
     id="layer1"
     transform="translate(0,-215)">
    <g
       aria-label="YEP"
       transform="scale(1.00105,0.99895112)"
       style="font-style:normal;font-variant:normal;font-weight:normal;font-stretch:normal;font-size:10.65278244px;line-height:1.25;font-family:impact;-inkscape-font-specification:impact;letter-spacing:0px;word-spacing:0px;fill:#337abf;fill-opacity:0.94117647;stroke:none;stroke-width:0.26631954"
       id="text12-0">
      <path
         d="m 34.438249,241.16972 -10.645848,35.82137 v 20.32074 H 10.26836 V 276.99109 L 0.00395921,241.16972 H 13.423969 q 3.15561,16.40223 3.537057,22.08927 1.213696,-8.98135 4.057213,-22.08927 z"
         style="font-style:normal;font-variant:normal;font-weight:normal;font-stretch:normal;font-size:71.01855469px;font-family:impact;-inkscape-font-specification:impact;fill:#007bff;fill-opacity:0.94117647;stroke-width:0.26631954"
         id="path4495" />
      <path
         d="m 36.900318,241.16972 h 24.343274 v 11.23536 h -9.744245 v 10.64584 h 9.120058 v 10.68053 h -9.120058 v 12.34502 h 10.715202 v 11.23536 H 36.900318 Z"
         style="font-style:normal;font-variant:normal;font-weight:normal;font-stretch:normal;font-size:71.01855469px;font-family:impact;-inkscape-font-specification:impact;fill:#007bff;fill-opacity:0.94117647;stroke-width:0.26631954"
         id="path4497" />
      <path
         d="m 66.445144,241.16972 h 14.70306 q 5.964449,0 9.154736,0.93628 3.224964,0.93628 4.820107,2.70481 1.62982,1.76853 2.184653,4.29995 0.589509,2.49674 0.589509,7.76765 v 4.88946 q 0,5.37494 -1.109665,7.83701 -1.109665,2.46207 -4.091889,3.7798 -2.947548,1.31773 -7.732977,1.31773 h -3.918505 v 22.60942 H 66.445144 Z m 14.599029,9.60554 v 14.28693 q 0.624187,0.0347 1.074988,0.0347 2.011268,0 2.774162,-0.97096 0.797572,-1.00563 0.797572,-4.12656 v -4.61205 q 0,-2.87819 -0.901603,-3.74512 -0.901602,-0.86692 -3.745119,-0.86692 z"
         style="font-style:normal;font-variant:normal;font-weight:normal;font-stretch:normal;font-size:71.01855469px;font-family:impact;-inkscape-font-specification:impact;fill:#007bff;fill-opacity:0.94117647;stroke-width:0.26631954"
         id="path4499" />
    </g>
    <g
       aria-label="C O I N"
       transform="scale(0.98776581,1.0123857)"
       style="font-style:normal;font-variant:normal;font-weight:bold;font-stretch:normal;font-size:27.96737862px;line-height:1.25;font-family:arial;-inkscape-font-specification:'arial Bold';letter-spacing:0px;word-spacing:0px;fill:#000000;fill-opacity:1;stroke:none;stroke-width:0.2627854"
       id="text16-3">
      <path
         d="m 16.020221,226.21378 4.173601,1.32333 q -0.959783,3.49012 -3.199276,5.19156 -2.224951,1.68689 -5.656902,1.68689 -4.2463116,0 -6.9802383,-2.89389 -2.7339267,-2.90844 -2.7339267,-7.94003 0,-5.32243 2.7484689,-8.25994 2.7484689,-2.95206 7.2274551,-2.95206 3.911842,0 6.354925,2.3122 1.454217,1.36696 2.181325,3.92638 l -4.260854,1.01796 q -0.378096,-1.65781 -1.585096,-2.61759 -1.192457,-0.95979 -2.908432,-0.95979 -2.370373,0 -3.8536737,1.70144 -1.4687585,1.70143 -1.4687585,5.51148 0,4.04272 1.4542164,5.75869 1.4542163,1.71598 3.7809628,1.71598 1.715975,0 2.952059,-1.09066 1.236084,-1.09067 1.774144,-3.43195 z"
         style="font-style:normal;font-variant:normal;font-weight:bold;font-stretch:normal;font-size:29.78235054px;font-family:arial;-inkscape-font-specification:'arial Bold';fill:#8a568f;fill-opacity:0.94117647;stroke-width:0.2627854"
         id="path4486" />
      <path
         d="m 31.289492,223.52348 q 0,-3.25745 0.974325,-5.46786 0.727108,-1.62872 1.977734,-2.92297 1.265169,-1.29426 2.763011,-1.91957 1.992277,-0.84344 4.595324,-0.84344 4.711661,0 7.532841,2.92297 2.835722,2.92298 2.835722,8.12907 0,5.16247 -2.806638,8.08544 -2.806638,2.90844 -7.503756,2.90844 -4.755288,0 -7.561925,-2.89389 -2.806638,-2.90844 -2.806638,-7.99819 z m 4.43536,-0.14543 q 0,3.621 1.672349,5.49694 1.672349,1.8614 4.246312,1.8614 2.573962,0 4.217227,-1.84686 1.657807,-1.86139 1.657807,-5.56964 0,-3.66463 -1.614181,-5.46786 -1.599638,-1.80323 -4.260853,-1.80323 -2.661216,0 -4.289939,1.83232 -1.628722,1.81777 -1.628722,5.49693 z"
         style="font-style:normal;font-variant:normal;font-weight:bold;font-stretch:normal;font-size:29.78235054px;font-family:arial;-inkscape-font-specification:'arial Bold';fill:#8a568f;fill-opacity:0.94117647;stroke-width:0.2627854"
         id="path4488" />
      <path
         d="m 63.442216,234.052 v -21.31881 h 4.304481 V 234.052 Z"
         style="font-style:normal;font-variant:normal;font-weight:bold;font-stretch:normal;font-size:29.78235054px;font-family:arial;-inkscape-font-specification:'arial Bold';fill:#8a568f;fill-opacity:0.94117647;stroke-width:0.2627854"
         id="path4490" />
      <path
         d="m 80.136616,234.052 v -21.31881 h 4.188143 l 8.725298,14.23678 v -14.23678 h 3.999095 V 234.052 H 92.730129 L 84.135711,220.14969 V 234.052 Z"
         style="font-style:normal;font-variant:normal;font-weight:bold;font-stretch:normal;font-size:29.78235054px;font-family:arial;-inkscape-font-specification:'arial Bold';fill:#8a568f;fill-opacity:0.94117647;stroke-width:0.2627854"
         id="path4492" />
    </g>
  </g>
</svg>
